<?xml version="1.0" encoding="UTF-8"?>
<svg id="Layer_1" xmlns="http://www.w3.org/2000/svg" viewBox="0 0 500 358.38">
  <defs>
    <style>
      .cls-1 {
        fill: #e2ebf8;
      }

      .cls-2 {
        fill: #d5d3c9;
      }

      .cls-3 {
        fill: #274a8c;
      }

      .cls-4 {
        fill: #44937c;
      }

      .cls-5 {
        fill: #92afd4;
      }

      .cls-6 {
        fill: #c9d7ef;
      }

      .cls-7 {
        fill: #f0f3f7;
      }

      .cls-8 {
        fill: #9fa0be;
      }

      .cls-9 {
        fill: #171616;
      }

      .cls-10 {
        fill: #2d4ca2;
      }

      .cls-11 {
        fill: #030304;
      }

      .cls-12 {
        fill: #6fc083;
      }

      .cls-13 {
        fill: #f2afa6;
      }

      .cls-14 {
        fill: #61b282;
      }

      .cls-15 {
        fill: #30426f;
      }

      .cls-16 {
        fill: #a4c0e2;
      }

      .cls-17 {
        fill: #6a8fc9;
      }

      .cls-18 {
        fill: #6c96c6;
      }

      .cls-19 {
        fill: #8bb0db;
      }

      .cls-20 {
        fill: #e39c7d;
      }

      .cls-21 {
        fill: #5675b5;
      }

      .cls-22 {
        fill: #799fd1;
      }

      .cls-23 {
        fill: #bcbcb6;
      }

      .cls-24 {
        fill: #f9e9d0;
      }

      .cls-25 {
        fill: #7195bc;
      }

      .cls-26 {
        fill: #e9f1f9;
      }

      .cls-27 {
        fill: #fefefe;
      }

      .cls-28 {
        fill: #2a4a96;
      }

      .cls-29 {
        fill: #bfd5f2;
      }

      .cls-30 {
        fill: #b5c8e3;
      }
    </style>
  </defs>
  <path class="cls-29" d="M477.73,200.82c.63,3.31.97,6.72,1.96,9.92,1.8,5.8,3.9,11.5,6.04,17.19,2.02,5.35,4.26,10.62,6.38,15.93,2.16,5.4,3.59,11,3.5,16.83-.1,5.94-1.96,11.47-4.95,16.57-6.43,10.98-15.93,18.6-27.15,24.19-7.26,3.61-15,5.64-23.03,6.84-9.76,1.46-19.56,1.12-29.35.94-7.8-.14-15.59-1.05-23.39-1.34-10.09-.38-20.2-.91-30.28-.57-6.73.22-13.46,1.6-20.11,2.88-13.58,2.62-26.58,7.19-39.29,12.57-7.59,3.21-15.08,6.64-22.67,9.86-11.59,4.91-23.14,9.89-34.85,14.5-9.71,3.82-19.76,6.76-30.02,8.68-6.47,1.21-13.08,1.83-19.66,2.3-4.86.35-9.79.36-14.64-.02-7.49-.59-14.92-1.8-22.05-4.27-4.27-1.48-8.39-3.38-12.59-5.05-.76-.3-1.58-.45-2.37-.68-.09-.52.3-.75.62-.99,3.45-2.59,6.06-5.83,7.6-9.89,2.01-1.66,3.8-3.56,5.82-5.19,2.2-1.78,3.83-4.18,6.31-5.63.99.04,1.31.96,1.91,1.49,1.43,1.28,2.78,1.47,4.4.44,1.06-.67,2.03-1.48,2.94-2.34,7.21-6.81,14.36-13.69,21.47-20.6,6.34-6.16,12.77-12.23,19.26-18.23,2.5-2.31,5-4.63,7.69-6.72.56-.43,1.06-1.01,1.9-.72,5.66,4.33,11.04,9,16.86,13.11,8.42,5.94,16.98,11.65,26.75,15.24,4.88,1.8,9.87,2.88,15.11,2.58,1.51-.09,2.93-.59,4.39-.92,1.33-.31,2.64.06,3.91.27,7.39,1.23,13.48-1.63,19.12-5.9,6.16-4.67,11.04-10.55,15.53-16.78.5-.69.81-1.46,1.06-2.26,2-3.67,3.91-7.37,5.48-11.25,3.17-7.84,5.17-16,6.83-24.26.94-4.68,1.62-9.4,2.19-14.14.09-.77.11-1.58,1.05-1.9,4.08-.73,8.23-.48,12.34-.86,7.25-.68,14.53-1.08,21.75-2.11,3.31-.01,6.48-1.01,9.74-1.35.3-.06.6-.08.9-.11,4-.76,8.05-1.22,12.02-2.1,8.48-1.56,16.88-3.49,25.23-5.62,1.74-.44,3.22-1.18,4.27-2.73.86-1.28,2.29-2.1,2.96-3.58.29-.64.95-.91,1.67-.8,1.22.19,2.38-.1,3.55-.37,2.36-.54,4.66-.18,6.88.61,1.09.39,2.07.37,3.14,0,9.69-3.31,19.31-6.79,28.62-11.1,1.74-.8,3.55-1.44,5.25-2.32.6-.31,1.28-.75,2.02-.24Z"/>
  <path class="cls-5" d="M176.48,20.71c2.23-1.46,4.4-3.02,6.7-4.35,6.84-3.95,14.1-6.99,21.62-9.4.28-.09.59-.1.88-.14.12-.11.26-.18.42-.21.23,0,.46-.02.69-.03,3.77-.17,7.5.3,11.24.6,6.63.53,13.18,1.57,19.68,2.89,6.5,1.32,12.94,2.97,19.3,4.91,8.42,2.57,16.68,5.58,24.79,8.99,6.77,2.85,13.38,6.09,19.94,9.44,9.86,5.04,19.41,10.62,28.9,16.3,2.61,1.56,4.99,3.52,7.86,4.64.33.17.53.47.73.76.82,1.18,2.07,1.72,3.36,2.2.34.23.63.52.97.74,1.52,1.32,3.48,1.95,5.05,3.19.34.94,1.22,1.17,2,1.51,3.06,2.02,5.81,4.52,9.23,6,.23.12.43.29.61.48,3.35,2.85,7.09,5.16,10.69,7.66.43.3.99.43,1.24.97.17.39.19.81.23,1.23.09.9.05,1.8.05,2.69,0,26.25,0,52.5,0,78.75,0,1.07.1,2.16-.2,3.21-.52,1.13-1.48.79-2.34.65-3.72-.64-7.32-1.79-10.95-2.82-4.95-1.41-9.79-3.16-14.63-4.9-.95-.34-1.95-.59-2.73-1.31-.38-.53-.33-1.12-.27-1.72.39-4.49-.57-8.66-3-12.45-1.39-2.16-2.87-4.26-4.69-6.09-.86-.87-1.04-1.77-.58-2.92,1-2.5,1.68-5.1,2.17-7.75.18-.54.24-1.1.2-1.67-.02-.39,0-.78,0-1.18-.06-2.03-.02-4.06-.02-6.09-2.08-13.56-10.87-22.03-24.8-23.91-1.79-.23-3.57-.63-5.39-.5-2.76.45-5.54.54-8.27,1.37-6.78,2.07-10.25,6.8-11.55,13.49-.41,2.14-.49,4.26-.04,6.4-.4,3.12-1.42,6.1-2.22,9.13-.15.59-.21,1.14-.19,1.72-.91,1.45-1.58,3.1-3.23,3.94-2.18-.32-4-1.56-5.92-2.48-9.61-4.57-19.33-8.88-29.18-12.91-8.92-3.65-18.05-6.68-27.3-9.35-10.24-2.95-20.67-4.98-31.23-6.43-2.21-.3-4.53-.19-6.64-1.13-.12-.18-.2-.38-.25-.59-.1-3.56-.42-7.13.18-10.68.64-.87,1.6-.66,2.47-.66,5.13-.02,10.26-.06,15.39.01,1.86.03,3.37-.54,4.67-1.82,1.44-1.42,3.13-2.58,4.5-4.08.16-.14.33-.25.52-.34.4-.15.8-.17,1.22-.13,6.17,1.18,12.29,2.62,18.45,3.86,9.38,1.88,18.72,3.95,28.17,5.48,5.25.85,10.49,1.78,15.76,2.53,6.52.93,13.08,1.58,19.67,1.25,3.56-.17,7.19-.3,10.37-2.37,1.91-1.24,3.02-2.86,2.88-5.2-.21-3.49-1.45-6.67-3.13-9.65-4.81-8.53-11.88-14.89-19.82-20.44-7.05-4.93-14.64-8.86-22.43-12.41-6.81-3.11-13.88-5.58-21-7.87-5.87-1.89-11.83-3.48-17.85-4.82-9.23-2.06-18.54-3.65-27.97-4.5-4.29-.39-8.58-.78-12.89-.7-.81.01-1.74.09-2.09-.97Z"/>
  <path class="cls-29" d="M54.73,242.13c-.51-.14-1.06-.2-1.52-.43-9.44-4.66-18.56-9.88-26.54-16.8-6.48-5.62-11.86-12.21-16.24-19.63-3.12-5.27-5.48-10.83-7.32-16.63-2.82-8.87-3.58-18.03-2.84-27.23.73-9.02,3.16-17.7,7.08-25.88,4.51-9.41,10.4-17.89,17.42-25.63,5.43-5.99,11.55-11.16,17.95-16.04.79-.6,1.73-1.02,2.6-1.53,1.25-.42,2.49-.05,3.67.23,2.92.7,5.94.96,8.81,1.93.13.19.22.39.28.61.24,1.07.15,2.15.15,3.22,0,31.1,0,62.2,0,93.3,0,.72,0,1.44,0,2.15.01,4.57.86,5.4,5.49,5.4,16.39,0,32.78,0,49.17,0,1.01,0,2.04-.07,3.04.14,1.13.34.92,1.05.48,1.81-.51.88-1.21,1.62-1.85,2.41-4.33,5.42-7.94,11.3-10.95,17.55-.36.75-.74,1.5-1.34,2.1-1.6.69-3.35.67-5.02,1.03-2.86.62-3.71,1.65-3.88,4.62-.09,1.5.43,3.09-.51,4.5-2.78.32-5.54.93-8.36.85-.78-.44-.79-1.29-1.01-2.01-1.61-5.26-3.03-10.58-5.14-15.67-2.07-4.99-5.18-9.17-10.25-11.51-3.66-1.69-7.45-2.07-11.34-.75-1.64.68-2.19,2.09-2.5,3.67-1,5.14-.83,10.31-.56,15.49.3,5.83.92,11.63,1.44,17.44.04.48.03.96-.4,1.3Z"/>
  <path class="cls-24" d="M375.3,56.8c.88-.13,1.76-.37,2.64-.37,38.43-.02,76.85-.03,115.28.05,1.61,0,3.35.73,4.79,1.54,2.12,1.19,1.41,3.66,1.96,5.56.08.28.01.6.01.89,0,33.27.02,66.54-.05,99.81,0,2.49.17,5.27-2.05,7.14-.81.68-1.95,1.23-2.98,1.32-3.29.28-6.61.33-9.91.43-.25,0-.51-.25-.77-.39-.6-.81-.13-1.61.05-2.38.79-3.41,1.66-6.81,2.07-10.3.84-6.13,1.42-12.27.37-18.44-1.13-10.41-5.63-19.15-13.12-26.38-1.63-1.57-3.32-3.09-5.24-4.32-2.12-1.85-4.66-3.06-7.06-4.48-.43-.25-.9-.27-1.38-.33-.17-.06-.31-.17-.41-.33-1.22-2.4-1.6-5.12-2.99-7.48-2.37-4.03-5.28-7.52-9.19-10.12-3.78-2.51-7.74-4.6-12.31-5.37-4.61-.78-9.16-.67-13.68.46-3.33.83-6.51,2.01-9.26,4.14-.35.18-.72.21-1.1.13-2.02-.98-4.05-1.94-5.96-3.14q-.46-2.29-2.93-2.43c-.41-.02-.83-.05-1.23-.2-.89-.48-1.75-1.02-2.52-1.67-.54-.45-1.14-.92-.81-1.79.63-.64,1.43-.55,2.18-.43,1.26.2,2.5-.09,3.74-.15.62-.03,1.25-.21,1.2-1.01-.05-.73-.72-.73-1.23-.75-2.74-.09-5.48-.02-8.23-.04-.95,0-1.91.11-2.84-.24-.91-.65-1.56-1.56-2.37-2.32-.52-.48-.8-1.07.09-1.53.99-.33,2.02-.22,3.03-.22,12.27,0,24.55,0,36.82-.02,1.12,0,2.45.33,3.11-1.11-.53-1.06-1.51-.92-2.37-.94-3.17-.05-6.35-.02-9.52-.02-10.84,0-21.67,0-32.51,0-.96,0-1.92.07-2.86-.17-1.17-.47-1.74-1.55-2.45-2.46-.39-.5-.51-1.09.22-1.48.98-.36,2.01-.25,3.02-.25,14.29,0,28.59,0,42.88,0,.78,0,1.56.04,2.33-.08.6-.1,1.21-.2,1.2-1.16-.75-.68-1.74-.47-2.64-.47-15.43-.01-30.86,0-46.29-.01-1.02,0-2.03.04-3.04-.07-.67-.08-1.26-.35-1.7-.87-1.27-1.49-2.47-3.05-3.72-4.56-.27-.32-.45-.71-.26-1.15Z"/>
  <path class="cls-25" d="M176.48,20.71c.62.16,1.23.42,1.86.48,7.77.63,15.58.91,23.3,1.91,10.15,1.32,20.17,3.46,29.98,6.45,6.02,1.84,12.1,3.54,17.95,5.83,6.19,2.43,12.25,5.27,18.16,8.32,4.9,2.52,9.66,5.38,14.19,8.51,5.55,3.83,10.6,8.29,14.79,13.67,3.25,4.18,5.91,8.61,7.15,13.83,1.29,5.45-1.05,7.93-5.77,9.32-5.43,1.6-11.07,1.44-16.68.86-3.9-.41-7.83-.64-11.72-1.16-4.65-.63-9.27-1.45-13.89-2.25-6.5-1.13-12.98-2.31-19.47-3.49-1.11-.2-2.2-.51-3.3-.75-7.49-1.62-14.99-3.24-22.48-4.86-.81-.17-1.63-.33-2.44-.49-.32-.88.32-1.34.86-1.78,2.95-2.43,5.7-5.09,8.7-7.47,1.57-1.24,1.52-1.51-.09-2.77-9.61-7.59-19.25-15.13-28.81-22.77-1.38-1.1-2.79-2.18-4.5-3.29-.92,2.31-1.58,4.47-2.36,6.57-.64,1.73-1.27,3.48-1.82,5.25-.19.61-.28,1.54-1.38,1.12-.58-.88-.49-1.88-.27-2.77.57-2.29.48-4.61.52-6.93.08-4.46-.24-8.93.3-13.39.21-1.71.17-3.43-.91-4.98-.61-.88-1.22-1.23-2.23-.84-.68.26-1.38.39-2.09.11-.69-.47-.37-.81.14-1.13.21-.06.43-.11.64-.17.2-.03.22-.28.41-.33.42-.2.85-.39,1.27-.59Z"/>
  <path class="cls-16" d="M174.17,21.8c-.16.28-.32.56-.48.83-1.88,2.29-4.52,3.68-6.68,5.65-3.08,2.82-6.2,5.59-9.62,8.02-4.63,3.29-9.3,6.49-14.33,9.15-1.93,1.02-3.81,2.14-5.96,3.24,2.77,1.75,5.14,3.52,7.32,5.56,4.36,4.09,7.45,9,9.45,14.59.31.85.99,1.95-.38,2.66-3.61.39-7.24.09-10.85.18-1.35.03-2.73.44-4.03-.28-1.31-1.22-1.04-3.01-1.61-4.5-.33-2.66-.41-2.74-3.12-2.75-8.86,0-17.72,0-26.58,0-.95,0-1.92.08-2.85-.19-.92-.45-.75-.99-.05-1.45.75-.49,1.57-.86,2.41-1.2,9.19-3.64,18.21-7.64,27.05-12.06.21-.11.42-.22.65-.74-1.89-.92-3.82-1.78-5.87-2.3-7.37-1.87-14.75-1.82-21.94.73-6.13,2.17-11.36,5.79-15.65,10.78-1.84,2.15-3.08,4.7-4.96,6.79-1.59,1.71-2.56,3.67-2.43,6.07.38.85.92.28,1.32.09,4.24-2.04,8.64-3.7,12.94-5.61.75-.33,1.55-.73,2.3.06.31,1.92-.38,3.74-.65,5.59-.34,2.28-.87,4.52-1.09,6.82-.05.63-.31,1.14-.9,1.43-4.52,1.37-8.93,3.06-13.3,4.87-.7.29-1.42.7-2.23.33-.89-2.8-.42-5.65-.25-8.48.05-.83.42-1.61.45-2.68-1.18.2-2.17.7-3.16,1.16-6.68,3.06-13.35,6.12-19.74,9.77-.37.21-.76.35-1.19.36-.19-.02-.36-.09-.5-.23,0-19.44-.02-38.88-.02-58.32,0-2.6,1.71-4.15,4.53-4.15,13.52,0,27.05,0,40.57,0,23.16,0,46.31,0,69.47,0,.65,0,1.3.13,1.94.19Z"/>
  <path class="cls-29" d="M372.02,77.67c-.92-.49-1.9-.9-2.76-1.48-2.79-1.88-5.54-3.81-8.28-5.76-.34-.24-.51-.71-.76-1.08.08-2.45,1.31-4.57,2.05-6.82.43-1.33.07-1.82-1.11-2.24-5.11-1.83-10.29-3.46-15.36-5.39-1.82-.69-3.53-.22-5.29-.07-.66.06-1.29.3-1.88-.18-1.79-.89-3.62-1.69-5.35-2.68-10.02-5.75-19.91-11.75-30.06-17.26-6.9-3.75-14.02-7.16-21.29-10.12-8.55-3.49-17.3-6.52-26.09-9.38-5.76-1.88-11.69-3.3-17.62-4.58-4.87-1.05-9.84-1.72-14.79-2.32-5.37-.64-10.78-1-16.17-1.49-.16-.01-.31-.16-.47-.24,2.54-.75,5.05-1.65,7.62-2.22,4.7-1.04,9.43-2,14.18-2.77,3.58-.58,7.2-.99,10.82-1.16,5.91-.27,11.84-.6,17.74-.33,10.82.5,21.65,1.14,32.28,3.45,7.27,1.58,14.59,2.97,21.75,4.93,9.61,2.64,18.95,6.06,27.37,11.6,7.91,5.21,15.19,11.15,21.43,18.28,3.73,4.26,7.26,8.69,10.9,13.02.28.33.77.49,1.16.73.54.63.98,1.31,1.12,2.15.59.83,1.19,1.66,1.78,2.49.1.85-.49,1.35-1.05,1.73-1.08.74-1.29,1.74-1.28,2.94.02,4.58.02,9.15,0,13.73,0,.87.17,1.81-.59,2.51Z"/>
  <path class="cls-29" d="M108.93,293.62c1.33-.01.97-.99.78-1.62-.93-3.06-1.75-6.18-2.99-9.12-1.28-3.02-3-5.84-4.52-8.75,1.24-3.55,2.4-7.14,4.81-10.14,2.8-.94,5.76-1,8.64-1.42,14.85-2.18,29.66-4.62,44.57-6.35,6.75-.78,13.46-.97,20.12.73,2.13.54,2.28.86.87,2.65-2.29,2.69-5.02,4.93-7.49,7.43-9,9.08-17.96,18.18-26.74,27.47-1.06,1.14-2.33,2.06-3.47,3.12-2.32,2.15-2.48,3.39-.98,6.15.35.64,1.07,1.21.61,2.1-3,.39-4.93,2.61-7.23,4.19-.87.6-1.54,1.49-2.67,1.66-1-.08-1.53-.87-2.15-1.48-3.63-3.62-7.21-7.29-11.18-10.55-2.94-2.41-6.11-4.36-9.84-5.29-.45-.11-.96-.19-1.12-.75Z"/>
  <path class="cls-5" d="M477.73,200.82c-4.92,2.11-9.81,4.31-14.78,6.31-5.08,2.06-10.22,3.95-15.36,5.87-2.12.79-4.27,1.52-6.44,2.17-.61.18-1.41.15-2.01-.07-2.7-.98-5.42-.72-8.24-.71-4.08.02-5.3,3.2-7.57,5.3-.67.62-1.41,1.36-2.24,1.56-8.26,1.99-16.55,3.89-24.83,5.8-.63.15-1.28.23-1.93.34-.97-1.48-.44-3.13-.51-4.71-.1-2.44-.04-2.46-2.43-2.73-2.47-.28-4.95-.37-7.42,0-.53.08-1.07.05-1.58-.17-.8-.66-.1-1.03.32-1.37,3.42-2.79,5.89-6.25,7.89-10.19.78-1.54,1.15-3.6,3.05-4.45,1.36-.34,2.74-.15,4.11-.19,8.36-.22,16.49-1.58,24.51-4.03,13.72-4.2,26.05-11.06,37.84-19.05,3.81-2.58,7.36-5.53,11.24-8.02.3-.11.62-.15.94-.17,3.2-.16,6.41-.09,9.61-.04.75.01,1.75-.2,1.99.97-.98,3.18-1.77,6.42-2.97,9.51-2.25,5.84-3.66,11.78-3.22,18.07Z"/>
  <path class="cls-11" d="M54.73,242.13c-.4-4.51-.86-9.02-1.17-13.54-.47-6.84-1.05-13.7.14-20.53.33-1.92.68-3.99,3.24-4.31,3.03.29,5.04,2.15,6.54,4.53,2.91,4.6,4.62,9.7,5.8,15,1.46,6.56,2.42,13.21,2.75,19.89.32,6.63-.9,13.11-3.56,19.25-.45,1.05-1.19,1.95-2.02,2.73-.98.94-2.1,1.6-3.55,1.23-3.44-1.38-4.94-4.26-5.56-7.62-.86-4.7-1.47-9.45-2.19-14.18-.13-.83-.28-1.65-.42-2.47Z"/>
  <path class="cls-11" d="M129.82,350.43c-3.83.53-6.59-1.38-8.84-4.12-2.47-3-4.92-6.04-7.07-9.27-5.87-8.87-11.65-17.79-17.29-26.81-1.44-2.3-2.3-4.98-3.22-7.57-.51-1.45-.76-3.08.78-4.27,2.27-1.07,4.52-.9,6.76.1,4.81,2.14,8.62,5.58,12.12,9.4,4.87,5.3,9.2,11.05,12.96,17.17,3.8,6.19,6.35,12.88,6.44,20.28.03,2.08-.43,4.08-2.64,5.09Z"/>
  <path class="cls-15" d="M129.82,350.43c2.57-2.44,2.46-5.49,1.95-8.62-1.05-6.45-3.38-12.41-7-17.86-4.56-6.86-9.37-13.54-15.48-19.1-2.48-2.26-5.48-3.98-8.31-5.83-2.11-1.37-4.5-.76-6.8-.63,3.19-3.33,7.16-4.8,11.69-4.92,1.01-.03,2.03.09,3.04.15,7.81,1.66,13.07,7.13,18.46,12.39,1.88,1.83,3.75,3.67,5.63,5.51.85.75.72,1.84.91,2.8,1.07,5.36,2.56,10.54,5.88,15.01,1.42,1.91,3.59,2.93,5.27,4.52,1.04.99,2.18,1.87,2.18,3.5-.2.84-.23,1.77-.62,2.51-1.77,3.36-4.3,6.08-7.44,8.21-2.93,1.56-5.95,2.78-9.38,2.34Z"/>
  <path class="cls-15" d="M62.9,266.39c4.4-.9,5.52-4.55,6.56-8.09,1.94-6.57,2.74-13.27,1.54-20.11-1.04-5.91-1.69-11.9-3.03-17.74-1.17-5.09-2.86-10.15-6.73-13.97-1.18-1.17-2.85-1.83-4.3-2.73,5.02-1.58,9.66-.59,13.91,2.26,4.69,3.14,7.21,7.88,8.95,13.05,1.65,4.91,3.08,9.9,4.61,14.86.38.72.05,1.39-.17,2.07-1.5,4.55-2.58,9.15-2.38,14.01.09,2.19.44,4.25,1.36,6.23.65,1.41,1.25,2.84,1.63,4.34.27,1.04.53,2.1-.22,3.08-.75.66-1.41,1.46-2.25,1.96-5.9,3.46-12.01,4.58-18.45,1.48-.37-.18-.69-.45-1.03-.69Z"/>
  <path class="cls-24" d="M373.16,54.27c-.37-.72-.74-1.44-1.11-2.15,0-2.15,0-4.3,0-6.46,0-2.73.16-2.89,2.81-2.89,1.85,0,3.71-.09,5.56.02,4.45.26,8.89-.2,13.33,0,1.09.05,2.17.47,3.26.52.65.03,1.31-.49,1.96-.5,3.05-.06,6.1-.07,9.15.01,1.05.03,1.73.63,1.71,1.87-.05,2.57.06,5.14-.07,7.71-.03.54-.71,1.25-1.26,1.5-.73.32-1.62.35-2.45.35-6.14.03-12.28.02-18.42,0-.7,0-1.41-.25-2.11-.24-1.19.02-2.38.22-3.56.23-2.93.04-5.86.02-8.79.02Z"/>
  <path class="cls-13" d="M84.62,263.65c-.43-1.96-.48-4.1-1.35-5.83-2.51-5-2.4-10.12-1.29-15.33.62-2.9,1.6-5.72,2.42-8.57,2.81-.25,5.63-.51,8.44-.76.71.42.82,1.13.87,1.85.49,7.25,1.71,14.4,2.87,21.55.15.93.42,1.86.26,2.83-.55,2.47-2.9,2.2-4.57,2.94-.7.31-1.51.05-2.25.21-1.8.37-3.6.74-5.4,1.11Z"/>
  <path class="cls-2" d="M372.02,77.67c.02-5.37.04-10.73.04-16.1,0-1.45-.27-2.94,1.61-3.6.51-.18.86-.8,1.28-1.21.12.01.24.03.36.04,1.68,2.03,3.37,4.06,5.05,6.08.34,1.55,1.36,2.44,2.83,2.9.73,1.07,1.46,2.14,2.2,3.21-.69.65-1.56.42-2.37.5-.82.09-1.69.06-2.12,1.01.27.93,1.08.81,1.74.83,1.6.06,3.2-.01,4.8.04.82.03,1.69.01,2.21.85.84,1.07,1.69,2.15,2.53,3.22-.62.63-1.43.52-2.19.53-2.21.03-4.42,0-6.63.01-.54,0-1.08-.01-1.6.11-.42.1-.85.22-.87.74-.02.52.38.69.81.8.59.14,1.19.13,1.78.13,3.7,0,7.4-.02,11.1.02,1.06.01,2.18-.05,2.98.89,1.08.96,2.17,1.91,3.25,2.87-.74.71-1.67.54-2.55.55-4.9.02-9.8,0-14.71.01-1.15,0-2.29.02-3.11,1.02-.7.71-1.44.47-2.09-.02-2.06-1.52-4.23-2.89-6.27-4.44-.02-.33-.04-.67-.06-1Z"/>
  <path class="cls-22" d="M76.61,8.31c1.38,0,2.75.02,4.13,0,1.32-.03,2.02.53,2.01,1.9-.02,2.45-.02,4.91,0,7.36,0,1.29-.66,1.84-1.89,1.84-2.81,0-5.63,0-8.44.01-1.21,0-1.9-.48-1.88-1.82.04-2.45.05-4.91,0-7.36-.03-1.4.62-1.95,1.95-1.93,1.38.02,2.75,0,4.13,0Z"/>
  <path class="cls-22" d="M89.35,19.42c-1.37,0-2.75-.04-4.12.01-1.3.05-1.91-.62-1.93-1.81-.05-2.51-.05-5.02,0-7.52.02-1.12.65-1.77,1.81-1.78,2.93-.01,5.85,0,8.78-.01,1.24,0,1.73.73,1.74,1.81.04,2.51.04,5.02-.01,7.52-.02,1.2-.67,1.83-1.96,1.78-1.43-.06-2.87-.01-4.3-.01h0Z"/>
  <path class="cls-22" d="M63.67,19.41c-1.44,0-2.87-.03-4.31,0-1.23.03-1.73-.53-1.72-1.73.03-2.51,0-5.03.01-7.54,0-1.14.5-1.82,1.72-1.82,2.93,0,5.87-.02,8.8,0,1.08,0,1.66.59,1.66,1.69,0,2.57,0,5.15-.01,7.72,0,1.2-.69,1.7-1.84,1.69-1.44-.01-2.87,0-4.31,0Z"/>
  <path class="cls-23" d="M483.92,173.24c-.61-.15-1.21-.41-1.82-.42-3.38-.05-6.77-.04-10.15-.05-.41-.98.5-1.18.98-1.6,2.59-2.27,5.38-4.31,7.85-6.72.67-.47,1.39-.87,1.9-1.54.88-.69,1.67-1.48,2.52-2.21.43-.36.8-.94,1.5-.48-.83,4.19-1.66,8.37-2.49,12.56-.1.15-.19.3-.29.45Z"/>
  <path class="cls-5" d="M57.68,84.08c.11,0,.23,0,.34,0,.46.51.32,1.12.28,1.7-.16,2.14-.03,4.29-.09,6.43-.02.82.12,1.69-.61,2.33-4.1-.74-8.19-1.49-12.29-2.23,3.12-2.12,6.23-4.26,9.37-6.37.98-.66,2-1.25,3-1.87Z"/>
  <path class="cls-5" d="M106.88,264.41c-1.35,3.04-2.69,6.08-4.06,9.11-.11.25-.41.41-.61.61-.95-1.21-1.9-2.42-2.86-3.63-.87-1.89-1.35-3.82-.43-5.84,2.64-.48,5.28-1.09,7.96-.25Z"/>
  <path class="cls-29" d="M98.99,264.75c.12,1.92.24,3.84.36,5.76-1.98-1.92-3.91-3.89-5.96-5.72-1-.89-2.23-1.51-3.36-2.25,1.39-.44,2.81-.82,4.16-1.35.8-.31,1.51-.87,2.26-1.32.27.16.47.4.52.69.29,1.58.99,2.96,2.02,4.19Z"/>
  <path class="cls-16" d="M175.21,21.3c-.14.11-.27.22-.41.33.14-.11.27-.22.41-.33Z"/>
  <path class="cls-29" d="M206.1,6.61c-.14.07-.28.14-.42.21.14-.07.28-.14.42-.21Z"/>
  <path class="cls-10" d="M143.1,305.66c-.61-1.28-1.27-2.53-1.83-3.83-.6-1.39-.11-2.58.93-3.55,1.47-1.38,2.98-2.72,4.48-4.08,1.21-.41,2.27-1.05,3.12-2.03.6-.69,1.34-1.19,2.29-1.29.48-.05.95-.22,1.31-.54,1.77-1.6,3.88-2.72,5.71-4.27,3.55-3.01,7.22-5.9,10.89-8.76,1.78-1.38,3.5-3.1,5.79-3.81.17-.05.33-.17.44-.3,2.24-2.53,5.28-4.03,7.94-5.98,4.19-3.07,8-6.62,12.23-9.59,2.92-2.05,6.19-3.62,9.03-5.81,5.54-4.27,11.71-7.55,17.41-11.56,1.22-.86,2.35-1.84,3.64-2.62,1.19-.73,2.34-1.41,3.8-1.41.67,0,1.33-.26,1.74-.81.83-1.13,2.05-1.61,3.26-2.13,1.09-.47,2.2-.81,3.16-1.62,1.04-.86,5.01-.5,6.15.38.39.3.77.61,1.24.69,2.67.47,5.14,1.57,7.5,2.78,3.02,1.55,6.27,2.66,9.14,4.43,2.84,1.75,5.98,2.94,8.6,5.09,1.71,1.41,3.52,2.65,5.89,3.18,2.36.52,4.25,2.37,6.2,3.85.24.18.45.47.72.52,3.3.74,5.14,3.53,7.65,5.37.45.33.95.47,1.45.67,1.42.54,2.87.87,4.03,2.13.9.98,2.44,1.29,3.67,1.99,1.53.87,2.73,1.89,3.57,3.37.69,1.2,1.63,1.87,3.04,1.82.62.07,1.12.38,1.57.78,4.42,3.92,8.45,8.21,12.26,12.72.91,1.08,1.57,2.26,1.07,3.76-.22.61-.32,1.31-.68,1.82-5.03,7.12-10.63,13.69-17.83,18.77-6.09,4.29-12.69,5.98-20.05,4.33-.46-.1-.95-.06-1.43-.08-2.89.04-5.08-1.64-7.36-3.06-.56-.35-1.11-.7-1.78-.8-.61-.09-1.15-.31-1.59-.76-3.19-3.19-6.59-6.12-9.16-9.97-2.17-3.25-3.75-6.94-6.68-9.68-.31-.29-.38-.74-.44-1.16-.05-.35,0-.91-.29-1-2.3-.76-2.33-3.71-4.52-4.59-.82-.33-1.03-1.29-1.46-1.99-1.62-2.61-3.94-4.63-5.87-6.98-2.68-3.25-6.5-3.44-9.99-1.03-1.57,1.08-3.2,2.09-4.77,3.16-1.49,1.01-2.9,2.26-4.24,3.52-1.61,1.52-3.44,2.75-5.1,4.2-1.13.82-2.37,1.53-3.37,2.48-13.82,13.04-27.6,26.12-41.41,39.17-2.21,2.09-4.45,4.16-6.76,6.15-3.15,2.72-4.35,2.59-7.17-.5-.2-.22-.42-.42-.63-.62-1.88-1.24-3.02-3.18-4.35-4.89-3.76-4.83-7.51-9.68-11.34-14.46-.37-.46-.77-.92-.84-1.55Z"/>
  <path class="cls-17" d="M437.47,239.39c.66-.03,1.32-.03,1.96-.11.45-.06,1.03-.11,1.31-.4,1.35-1.4,2.58-2.92,3.96-4.29.44-.43,1.21-.72,1.83-.74,3.89-.07,7.78-.04,11.67-.03,2.44,0,3.36.91,3.36,3.35.01,8.8,0,17.6,0,26.4,0,8.56,0,17.12,0,25.68,0,2.57-.88,3.54-3.45,3.81-.47.05-.96.03-1.44.03-31.85,0-63.7,0-95.55-.01-.89,0-1.93.06-2.61-.37-.81-.51-1.68-1.44-1.86-2.32-.36-1.73-.33-3.56-.34-5.35-.02-15.5-.01-31,0-46.51,0-.77.09-1.54.21-2.3.27-1.7,1.33-2.42,3.02-2.41,4.13.02,8.26,0,12.39,0,15.93,0,31.85,0,47.78.02.99,0,1.99.28,2.98.43.81.22,1.53.57,2.12,1.22,3.19,3.5,7.2,4.57,11.78,3.88.3-.05.59-.07.88.02Z"/>
  <path class="cls-14" d="M322.23,285.2c-.48-1.18-.67-2.63-1.48-3.51-4.03-4.37-8.23-8.59-12.38-12.84-.23-.24-.6-.35-.91-.52-1.53-.65-2.45-2.01-3.58-3.12-1.69-1.64-3.7-2.94-5.25-4.74-.17-.17-.36-.33-.55-.47-.8-.57-1.45-1.32-2.25-1.89-.24-.22-.47-.46-.73-.66-2.25-1.82-4.2-3.99-6.58-5.65-.64-.45-1.03-1.13-1.35-1.84-.16-.54-.68-1.16.02-1.62,2.01-1.31,3.02-3.53,4.74-5.1,1.59-1.46,3.15-2.9,5.25-3.68,1.78-.66,3.29-.36,4.68.8,2.69,2.23,4.41,5.21,5.86,8.29,1.91,4.06,3.8,8.12,6.21,11.91,1.28,2.01,2.82,1.95,3.9-.19.83-1.65,1.49-3.39,1.94-5.2,1.97-7.77,3.19-15.69,4.54-23.58.93-5.49,1.51-11.02,2.47-16.5.29-1.65.09-1.98-1.6-1.91-3.91.18-7.76-.45-11.63-.76-.59-.05-1.22-.02-1.59-.67.02-.96.85-1.05,1.48-1.25,4.97-1.57,8.55-4.74,11.2-9.2.98-1.65,1.84-3.34,2.69-5.05.83-1.67,1.48-1.85,2.9-.71,2.66,2.14,5.49,4.05,8.3,5.98.95.66,1.36,1.45,1.35,2.55-.41,5.3-.25,10.61-.82,15.92-.38,3.54-1.03,7.09-.96,10.69.02,1.14-.06,2.29-.87,3.22-.23,1.27-.54,2.53-.69,3.81-1.02,8.65-2.77,17.15-5.1,25.54-2.14,7.71-5.08,15.1-9.22,21.97Z"/>
  <path class="cls-3" d="M218.98,279.89c.85-.94,1.63-1.95,2.56-2.81,1.8-1.67,3.64-3.33,5.56-4.86.9-.72,2.06-1.1,3.06-1.7,1.86-1.1,3.6-2.46,5.56-3.33,1.88-.83,3.9-.34,5.54.87,1.23.91,2.27,2.11,3.32,3.24,1.41,1.52,3.06,2.93,4.04,4.7,1.35,2.43,4.37,3.45,5.08,6.37.08.31,1.13.39,1.41.79.68,1.21,1.33,2.45,2.06,3.64,1.41,2.32,2.73,4.71,4.33,6.89,1.66,2.27,3.56,4.38,5.45,6.47,1.56,1.73,3.13,3.47,4.92,4.94,1.08.89,2.56,1.28,3.87,1.89.67.31,1.71.42,1.98.94,1.02,1.93,3.34.8,4.55,2.12-4.73,1.89-9.5,1.26-14.24.11-7.82-1.9-14.83-5.63-21.61-9.82-9.73-6.02-18.79-12.93-27.41-20.43Z"/>
  <path class="cls-5" d="M337.23,233.88c.57-5.66,1.14-11.31,1.7-16.97.04-.36.04-.71.05-1.07.13-4.04.26-8.09.39-12.13.88-.67,1.86-.69,2.6.05,1.89,1.86,4.49,2.6,6.47,4.36,1.02.91,2.48,1.39,3.6,2.27,1.26.99,2.57,1.61,4.2,1.09,1.54,2.64,4.19,4.07,6.45,5.93.56.46,1.23.78.86,1.69-1.01,1.2-2.38.9-3.67.86-2.61-.09-3.07.3-3.1,2.87-.02,1.67-.01,3.34,0,5.01.01,1.13.55,1.78,1.66,1.98,2.67.48,5.35.32,8.03.17,1.11-.06,1.42-.92,1.45-1.92.05-1.67-.07-3.35.07-5.01.06-.67-.12-1.74,1.21-1.43.92,1.48.44,3.12.49,4.69.05,1.57-.1,3.13,1.82,3.78.35.12.44.53.2.9-11.49.95-22.99,1.91-34.48,2.86Z"/>
  <path class="cls-13" d="M143.1,305.66c3.96,5,7.92,10,11.88,15,1.56,1.97,3.11,3.93,4.66,5.9-1.89,1.71-3.81,3.4-5.67,5.15-1.61,1.5-3.13,3.1-4.76,4.58-.53.48-1.29.72-1.94,1.07-1.5-1.6-2.81-3.46-4.55-4.73-3.03-2.22-5.2-5.05-6.34-8.49-1.37-4.12-2.26-8.4-3.36-12.62,1.8-1.29,3.71-2.47,5.38-3.92,1.4-1.2,2.82-2.06,4.7-1.95Z"/>
  <path class="cls-16" d="M371.72,231.01c-.16-.23-.32-.65-.48-.65-1.97-.01-2.11-1.28-2.06-2.8.06-1.96,0-3.93,0-5.9.07-.06.14-.13.21-.2,1.56-.21,3,.51,4.58.47,1.96-.06,3.8-.27,5.5-1.31.5-.3,1.03-.62,1.67-.57.45.23.63.62.6,1.26.04-.57-.11-.91-.42-1.19-.14-.26-.1-.5.09-.72.27-.12.53-.12.75.11,1.13-.23,2.26-.63,3.39-.63,1.71,0,3.41.26,5.12.42.17.02.34.12.51.15.97.16,2.45,0,2.8.54.53.83.31,2.16.34,3.28.04,1.37.02,2.75.02,4.12-4.08.72-8.16,1.44-12.24,2.15-.5-1.16-.29-2.39-.35-3.42-.28,1.02.5,2.31-.36,3.44-3.23.48-6.46.97-9.69,1.45Z"/>
  <path class="cls-17" d="M424.08,234.2c2.16-.08,4.32-.16,6.47-.24.1.01.19.04.29.08,0,0,.15,0,.15,0s.04-.14.04-.14c2.76-.08,5.53-.2,8.29-.24.87-.01,1.75.2,2.89.34-.37,1.08-.69,2.04-1.05,3.1-1.52-.56-2.65-.51-3.12,1.14-.04.14-.62.12-.96.18-1.83-.24-3.25-1.2-4.45-2.53-.09-.02-.08-.18-.21-.16.18.06.24.23.36.36.97,1.47,2.97,1.6,4.26,3.22-1.86.56-3.54.5-5.1.23-3.06-.53-5.65-2.06-7.65-4.5-.2-.24-.3-.51-.21-.82Z"/>
  <path class="cls-5" d="M433.14,216.27c.19.4.38.81.65,1.37-2.44.73-4.81,1.44-7.17,2.15.29-1.1-.54-2.94,1.73-2.5.1.02.3-.03.33-.1,1.05-2.49,2.89-1.07,4.48-.91h-.01Z"/>
  <path class="cls-16" d="M432.49,235.6c1.53.94,3.06,1.88,4.59,2.81.13.32.26.65.39.98-3.34,1.35-6.58.78-9.53-.93-1.92-1.11-3.51-2.77-5.25-4.19.46-.02.93-.04,1.39-.07,3.17,4.01,7.27,5.67,12.2,4.96-1.29-1.1-2.62-2.23-3.95-3.37.05-.06.1-.13.16-.19Z"/>
  <path class="cls-5" d="M433.16,216.28c-.51-.35-1.02-.69-1.51-1.02,1.7-.98,4.62-.8,7.11.53-1.82,1.33-3.66,1.51-5.61.48,0,0,.01.01.01.01Z"/>
  <path class="cls-5" d="M381.4,229.56v-5.51c.24,0,.47,0,.71-.01,0,1.84,0,3.67,0,5.5-.24,0-.47,0-.71.02Z"/>
  <path class="cls-16" d="M430.9,234.32c-.11-.12-.23-.24-.34-.35.16-.02.31-.05.47-.07.02.1.03.19.04.29-.05.05-.11.09-.16.14Z"/>
  <path class="cls-19" d="M116.57,199.75c-18.08,0-36.17,0-54.25,0-3.33,0-4.66-1.35-4.66-4.68,0-33.41,0-66.81,0-100.22.63-.56,1.35-.32,2.05-.21.83.14,1.64.36,2.45.54q2.91.64,4.65-1.83c.76-1.09,1.65-2.05,2.75-2.81,2.46-1.71,5.17-3,7.73-4.55.51-.31,1.09-.51,1.67-.64,1.28-.3,1.65.07,1.38,1.39-.56,2.75-1.34,5.46-1.91,8.21-1.69,8.12-2.48,16.3-1.65,24.58.14,1.43,0,2.87.15,4.29,0-2.57.13-5.15-.02-7.71-.13-2.17.52-3.88,2.24-5.16,3.46-2.57,7.02-4.97,11.04-6.6.19-.02.38,0,.56.06,4.05,4.33,8.61,7.94,14.16,10.2,7.7,3.15,15.56,3.77,23.54,1.43,11.58-3.4,19.74-10.67,24.13-22,.07-.17.17-.31.28-.46.32-.3.69-.48,1.11-.59,3.93-.24,7.85-.23,11.78.03,3.38.22,6.77.4,10.16.54,1.36.06,2.76,0,3.93.91,0,.12,0,.25,0,.37.63.77.52,1.64.34,2.53-.54.68-.17,1.34.07,2,.21,3.6.24,7.19,0,10.78-.6,1.86.01,3.82-.45,5.7-.48.66-.51,1.44-.62,2.21-.09.65-.4,1.14-1.15,1.13-.76-.01-1-.54-1.12-1.17-.03-.18-.07-.36-.06-.53.41-4.61-1.07-9.12-.78-13.74.14-2.17-.9-4.13-1.61-6.31-1.41,1.02-1.67,2.25-1.66,3.59.01,2.33.12,4.67-.72,6.91-.2.53-.1,1.23-.98,1.42-.78-.42-.95-1.29-1.18-2.05-.35-1.14-.86-2.34-.83-3.46.07-2.4-.72-4.48-1.63-6.59-.19-.45-.25-.98-.89-.92-.56.05-.79.48-.89.99-.1.53-.07,1.07-.07,1.61-.02,2.15.05,4.31-.04,6.46-.03.73-.13,1.5-1.09,1.58-.85.07-1.03-.59-1.32-1.21-.64-1.35-.53-3.08-2.02-4.14-.87.98-1.04,1.97-.78,3.17.29,1.34.99,2.59.91,4.01-.04.71-.03,1.51-.93,1.74-.77.2-1.21-.31-1.63-.85-.4-.5-.64-1.18-1.41-1.35-.86.24-.94,1-.97,1.69-.12,3.06.66,5.91,1.6,8.83,1.11,3.44,3.02,6.49,4.12,9.89.6,1.85,1.74,3.45,2.76,4.98,1.19,1.78,2.45,3.62,4.24,5.03,1.22.96,1.64,2.68,2.67,3.94.87,1.06,1.7,2.15,2.68,3.11.9.89,1.78,1.78,2.28,2.97.09.22.18.54.37.6,2.2.74,2.19,2.83,2.82,4.54.11.56.12,1.14.31,1.69.14.67.17,1.35.1,2.03-.03.29-.12.55-.28.8-3.21,1.56-6.57,2.79-9.82,4.28-5.48,2.51-10.78,5.32-16.06,8.23-5.45,3-10.58,6.48-15.68,10-1.66.57-3.48-.1-5.39.57.84.71,1.71.37,2.36.73.67.5.15.83-.21,1.09-6.65,4.77-12.1,10.84-17.86,16.58-.28.08-.53.04-.74-.15Z"/>
  <path class="cls-29" d="M179.81,110.31c0-3.83,0-7.67,0-11.5-.27-.36-.27-.72,0-1.08,0-.96.02-1.91.02-2.87,5.6.73,11.23,1.26,16.78,2.24,6.14,1.09,12.25,2.42,18.3,3.96,4.73,1.2,9.37,2.77,13.98,4.35,5.91,2.03,11.81,4.12,17.63,6.4,4.49,1.76,8.88,3.78,13.27,5.78,6.57,2.98,13.1,6.05,19.64,9.07.21.1.46.11.69.17.41.88-.26,1.46-.63,2.1-3.07,5.46-4.79,11.26-4.68,17.57.03,2.03.9,3.96.58,6.02-.56,1.27-1.5.64-2.3.41-7.08-2.03-14.25-3.6-21.55-4.58-7.18-.96-14.39-1.6-21.62-1.18-8.47.48-16.91,1.41-25.17,3.51-.64.16-1.28.32-1.94.3-.3-.01-.64-.02-.85-.21-2.08-1.9-4.58-3.35-6.27-5.69-.82-1.41-1.96-2.48-3.49-3.09-3.5-2.85-6.48-6.27-9.95-9.15-2.43-2.02-2-4.41-1.27-6.85.5-1.65,1.1-3.28,1.78-4.86.73-1.69.55-3.4.47-5.1-.05-1.11-.8-1.18-1.67-.74-.56.28-.85,1.07-1.66.87-.18-.12-.26-.29-.25-.51.09-1.78-.2-3.57.16-5.34Z"/>
  <path class="cls-23" d="M372.08,78.67c1.97,1.2,3.94,2.41,5.91,3.6.64.39,1.3.73,1.96,1.1,1,.43,1.92,1.03,2.99,1.3,2.51,2.68,5.96,3.96,8.9,5.99,3.2,2.2,6.78,3.78,9.9,6.11.3.9-.16,1.65-.56,2.36-2.62,4.64-3.67,9.73-3.69,14.94-.02,5.3,1.35,10.37,3.99,15.04.76,1.33,1.72,2.58,1.95,4.17-.51.7-.73,1.46-.7,2.34.08,2.61-.22,5.25.55,7.82.29.96.06,1.83-.59,2.67-3.13,4.1-6.11,8.31-8.98,12.6-1.28,1.91-2.53,3.87-4.09,5.58-.78.86-1.27,1.85-1.66,2.91-.51.49-1.14.71-1.81.58-4.68-.88-9.45-1.39-13.96-3.03-.18-.14-.23-.32-.15-.54,0-24.69.02-49.38.03-74.06,0-3.83.01-7.65.02-11.48Z"/>
  <path class="cls-11" d="M335.77,124.3c-.7,2.65-1.29,5.32-2.14,7.92-.37,1.13-.27,1.8.53,2.67,1.44,1.58,2.77,3.29,4.04,5.02,3.36,4.57,4.28,9.76,3.72,15.3.41,1.58-.14,2.9-1.11,4.11-.28.13-.59.21-.86.1-5.24-2.06-10.85-2.53-16.26-3.84-.11-.03-.22-.08-.33-.13-.17-.1-.29-.24-.37-.42-.02-1.57.57-3.02,1.01-4.48.5-1.66.89-3.35,1.12-5.05.41-2.96-1.4-5.06-3.11-7.13-.83-1.01-1.86-1.84-2.66-2.89-.46-.61-.03-1.09.23-1.6.08-.14.17-.26.27-.39.15-.18.31-.34.47-.51.33-.33.48-.82.93-1.02,1.09-.4,1.9.51,2.85.65,1.94-2.81,1.83-4.77-.32-6.44-.3-.48-.27-1.03-.33-1.56-.41-3.67-3.27-5.26-6.55-3.63-.48.24-.91.57-1.43.74-1.16.26-2.16-.4-3.24-.58-.16-.04-.32-.1-.47-.17-.14-.08-.27-.18-.39-.29-.11-.12-.19-.25-.26-.39-.14-.35-.26-.71-.53-.99-.66-.82-1.5-1.35-2.51-1.61-.52-.29-.9-.74-1.36-1.11-1.83-1.53-3.85-2.82-5.26-4.82-.83-1.18-1.67-2.35-1.96-3.78-.21-1.02-.76-1.18-1.68-1.02-3.24.59-6.04,1.84-7.77,4.85-.16.21-.36.38-.6.5-1.2.23-2.46.06-3.63.58-.31.14-.52-.17-.7-.42-.81-6,.46-11.47,4.53-16.02,3.24-3.63,7.71-4.86,12.35-5.52,1.05-.15,2.14-.1,3.2-.14.79.86.22,1.68-.09,2.49-.89,2.33-.43,3.27,1.96,4.01,2.37.73,4.85.68,7.26,1.11,2.53.44,3.56,2.06,2.9,4.54-.39,1.47-1.4,2.92-.42,4.47,1.18,1.87,2.83,3.26,4.91,4.03,1.23.46,2.49.86,3.83.93,1.75.09,2.7,1.08,3.11,2.72.2.82.34,1.64.43,2.47.31,2.81,2.08,4.25,4.9,4.04.69-.05,1.42-.41,2.04.21-.02.36-.04.73-.06,1.09-.09.46.14.97-.19,1.4Z"/>
  <path class="cls-29" d="M340.71,159.09c.4-1.29.8-2.59,1.19-3.88,8.3,2.66,16.59,5.36,24.91,7.96,1.68.53,3.47.7,5.21,1.04.01.11.03.23.04.34.58.64.49,1.44.51,2.2.12,3.5,1.95,5.36,5.45,5.53.89.04,1.79,0,2.68.03,1.09.04,1.85.43,1.88,1.66.03.66-.08,1.29-.43,1.88-2.46,4.19-4.99,8.33-7.59,12.44-.39.61-.78,1.21-1.58,1.31-.69,0-1.04-.49-1.42-.96-2.31-2.82-4.79-5.48-7.32-8.09-5.62-5.79-11.76-11-18.02-16.09-1.53-1.24-3.13-2.39-4.64-3.64-.53-.44-1.27-.81-.88-1.73Z"/>
  <path class="cls-22" d="M179.82,94.48c-8.74-.35-17.49-.71-26.23-1.06-.57-.65-.31-1.34-.11-2.02,1.76-5.78,1.78-11.63.68-17.53-.18-.98-.59-1.98.21-2.9.47-.32,1.01-.37,1.55-.38,5.15-.14,10.28.03,15.42.43.24.02.47.1.69.2.93.7.4,1.53.12,2.26-.97,2.5-1.69,5.09-2.66,7.59-.17.45-.32.9-.19,1.38.62.58,1.37.37,2.05.39,2.15.06,4.3,0,6.45.03.7.01,1.46-.13,2.01.51,0,3.7,0,7.4,0,11.1Z"/>
  <path class="cls-9" d="M336.02,121.81c-1.35.04-2.73.27-4.03.06-2.01-.33-3.26-1.97-3.43-4-.07-.83-.22-1.65-.34-2.47-.26-1.74-1.25-2.51-3.03-2.62-3.53-.21-6.45-1.81-8.51-4.64-.6-.82-.56-2.18-.59-3.3-.01-.67.43-1.35.65-2.03.71-2.25-.25-3.71-2.62-3.99-1.95-.23-3.89-.47-5.83-.73-.53-.07-1.05-.22-1.56-.38-2.77-.9-3.25-2.07-2.07-4.71.31-.68.36-1.47.53-2.21,1.93.14,3.87.28,5.8.41.33,2.38.34,2.28,2.8,2.51,5.15.47,7.25,1.39,8.86,6.53.36,1.14.89,2.22,1.35,3.32.95,2.25,2.45,3.79,4.96,4.18,2.93.46,4.1,2.86,5.46,5.03.47.76.72,1.65,1.37,2.3.07,2.25.15,4.5.22,6.75Z"/>
  <path class="cls-11" d="M275.25,152.11c-2.19-8.84.08-16.86,4.51-24.48.15-.25.25-.53.38-.79.96-1.17,1.92-2.35,2.89-3.52.08-.17.21-.21.38-.13.42.39.82.81,1.27,1.17.41.39.75.81.86,1.39.13,1.73-.24,3.43-.29,5.16-.08,2.79.45,5.44,1.29,8.06-.38,1.99-1.74,3.58-2.15,5.61-.52,2.55-.7,5.04-.33,7.6.18,1.23.37,2.5-.59,3.55-.13.16-.27.29-.44.4-1.59.75-3.3,1.17-4.95,1.73-.56.19-1.14.31-1.68-.09-.77-1.81-1.36-3.65-1.13-5.66Z"/>
  <path class="cls-30" d="M179.81,83.38h-11.61c1.45-4.21,2.77-8.04,4.09-11.88-.36-.74,0-1.41.25-2.06,1.73-4.5,3.08-9.14,4.77-13.66.41-.97.66-2.01,1.1-2.97.17-.4.35-.79.71-1.08,1.39-3.86,2.78-7.72,4.17-11.58.22-.62.43-1.24.78-2.27,11.95,9.44,23.75,18.75,35.79,28.26-1.35,1.19-2.57,2.28-3.82,3.35-2.35,2.03-4.72,4.03-7.05,6.07-.38.34-.6.86-.9,1.29-.33,0-.65,0-.97,0-.43-.6-.04-1.08.35-1.4,2.93-2.44,5.49-5.32,8.73-7.38.1-.1.22-.14.37-.1-.25-.13-.38.15-.59.18-5.49,1.8-10.98,3.6-16.43,5.51-.66.23-1.63.22-1.67,1.3.62,2.04,1.65,3.93,2.17,6.29,2.56-1.11,3.83-3.53,6.07-4.61.37-.1.71-.04,1,.22-2.31,2.11-4.6,4.24-6.97,6.28-.37.31-1.14.19-1.73.2-6.2.02-12.4.02-18.61.03Z"/>
  <path class="cls-11" d="M335.8,115.06c-.39-.32-.89-.57-1.16-.98-.78-1.19-1.33-2.57-2.25-3.62-.77-.88-1.86-1.81-2.95-2.03-3.38-.67-5.26-2.71-6.31-5.8-.29-.84-.69-1.65-.96-2.5-1.62-5.08-3.6-5.37-8.15-6.01-.35-.05-.71,0-1.07,0-2.44-.01-2.74-.46-1.95-2.93,10.25,1.14,20.1,7.42,23.66,18.63.54,1.69.77,3.48,1.14,5.23Z"/>
  <path class="cls-29" d="M348.37,61.42c-1.69-1.06-3.39-2.13-5.08-3.19-.69-1.27.17-2.18.82-3.06.65-.89,1.56-.39,2.3-.1,4.4,1.68,8.94,2.93,13.32,4.67.43.17.95.2,1.25.83-.47.78-1.4.79-2.13.86-2.55.25-5.09.55-7.63.81-1.01.11-2.03-.06-2.84-.82Z"/>
  <path class="cls-29" d="M359.85,69.02c-1.21-.58-2.51-1.01-3.61-1.76-1.98-1.36-3.84-2.9-5.75-4.37,0-.71.55-.66,1-.74,3.35-.54,6.71-.96,10.1-1.06.2.06.37.17.52.31.29.43.29.9.13,1.36-.73,2.11-1.29,4.29-2.4,6.25Z"/>
  <path class="cls-16" d="M362,61.44c-3.84.48-7.67.96-11.51,1.45-1.08.04-1.99-.15-2.12-1.47,4.06-.14,8.13-.28,12.19-.42l.08-.63c-5.28-1.81-10.56-3.62-16.11-5.52-.44,1.2-.84,2.29-1.24,3.38-.24-.22-.48-.45-.72-.67-.14-.63.22-1.26.09-1.9-1.19-.79-2.54.52-3.69-.32-.12-.23-.23-.46-.35-.69.88-.13,1.79-.16,2.63-.41,3.81-1.12,6.87,1.3,10.23,2.2,3.37.9,6.59,2.34,9.92,3.4,1.55.49,2.01,1.13,1.34,2.71-.95,2.22-1.7,4.53-2.53,6.8-.12-.11-.24-.22-.36-.33.5-1.5,1.04-2.99,1.48-4.5.29-1,.45-2.04.67-3.07h0Z"/>
  <path class="cls-21" d="M283.1,123.26s-.09.05-.09.05c-.03-.51-.17-1.04-.06-1.52.69-3.12,1.43-6.22,2.15-9.33,1.44-.1,2.87-.2,4.31-.29.19.27.19.53-.03.78-.1.07-.21.18-.31.16-2.79-.46-3.25,1.58-3.74,3.52-.45,1.8-1.01,3.57-1.2,5.43-.05.47-.09.96-.51,1.3-.2.07-.37.04-.53-.1Z"/>
  <path class="cls-29" d="M338.97,55.34c1.35-.19,2.69-.39,4.53-.65-.36,1.1-.64,1.98-.92,2.87-1.2-.74-2.4-1.48-3.6-2.22Z"/>
  <path class="cls-9" d="M335.77,124.3c.06-.47.13-.93.19-1.4-.06.47-.13.93-.19,1.4Z"/>
  <path class="cls-5" d="M116.57,199.75c.25,0,.49,0,.74,0,1.01-.7,2.17-.57,3.3-.57,17.6,0,35.2,0,52.79,0,.78,0,1.56.03,2.33-.04,1.85-.16,3.08-1.3,3.41-3.12.15-.83.1-1.67.1-2.51,0-10.71,0-21.42,0-32.13,0-1-.17-2.06.57-2.92,0-.24,0-.48,0-.72.94-.74,1.96-1.19,3.19-.92,2.77,2.06,4.52,5.04,6.76,7.58,2.56,2.89,4.69,6.17,7.69,8.66.68.56.99,1.33,1.51,1.97,2.65,3.22,5.22,6.5,8.08,9.54,2.64,2.81,5.06,5.8,7.67,8.63,2.75,2.98,5.5,5.94,8.85,8.31,2.89,2.04,5.77,1.8,8.8.7.75-.27,1.49-.4,2.28-.39,3.57.03,6.89-1.13,10.21-2.24.56-.19,1.07-.59,1.68-.15,1.03,2.05,2.73,2.49,4.89,2.37,4.41-.25,8.72-1.14,13.06-1.85,1-.16,1.97-.45,2.99-.17.2.07.37.19.52.34.77,4.46,1.43,8.9.66,13.48-.41,2.4-.56,4.89-1.16,7.21-.73,2.82-1.19,5.87-3.33,8.17-1.55.4-3.04-.64-4.59-.2-2.32-.56-4.11-2.1-6.02-3.36-2.92-1.92-6.03-3.37-9.33-4.43-3.5-1.13-6.96-.55-10.38.39-1.89.52-3.74,1.22-5.56,1.98-.77.32-1.55.62-2.42.57-5.09-.7-10.23-.82-15.33-1.33-.77-.08-1.55-.1-2.32.1-2.18-.25-4.05-1.39-6.07-2.12-4.57-1.65-9.19-3.06-13.96-4-4.46-.88-8.92-.75-13.39-.37-5.54.48-11.09.8-16.63,1.33-5.18.5-10.37.89-15.54,1.45-.79.09-1.47,1-2.35.33-.4-.38-.44-.98-.82-1.38-.25-.33-.55-.62-.8-.96-.29-.58-.74-1.08-1-1.68-.76-1.78-.72-1.73-2.62-.98-1.34.52-2.63,1.08-3.65,2.13-.27.21-.58.38-.89.53-.73.25-1.36.78-2.16.81-.96.03-1.54.45-1.78,1.41-.14.55-.53.92-1.16.92-.67-.33-.7.65-1.24.6-3.61.9-7.33.87-10.99,1.4-2.83.41-5.68.71-8.52,1.08-.82.1-1.67.24-2.41-.33,3.44-7.49,7.69-14.46,12.94-20.83.55-.67.91-1.49,1.36-2.24Z"/>
  <path class="cls-3" d="M102.27,222.83c7.41-.87,14.82-1.74,22.22-2.61.28.27.29.59.16.94-.48.63-1.34.83-1.75,1.55-.25.27-.52.51-.78.78-.26.24-.51.49-.72.78-.13.18-.28.35-.44.51-.17.17-.35.31-.54.45-1.46,1.05-2.56,2.4-3.36,4-.42.48-.73,1.03-1.04,1.59q-.93,1.52.87,2.17c.44.34.77.8,1.18,1.18.28.38.51.8.84,1.15,1.09,1.35,2.15,2.73,3.47,3.87.52,1.11,1.49,1.88,2.23,2.82.52.89,1.3,1.55,2.08,2.2.22.23.39.5.55.78.37.72.99,1.2,1.59,1.71.22.23.39.5.55.77.38.8,1.12,1.27,1.71,1.88.53,1,1.23,1.87,2.1,2.59.18.17.34.36.48.56.26.41.57.79.77,1.25q.55,1.98,2.3,1.41c1.84-.62,3.51-1.61,5.24-2.45.75-.29,1.68-.06,2.24-.83.13-.19.23-.39.31-.61.08-.22.17-.43.3-.63.49-.51,1.08-.91,1.56-1.44,1.12-.54,1.91-1.44,2.68-2.36.22-.22.48-.38.74-.54.31-.18.58-.41.82-.67.2-.2.39-.4.56-.62.13-.17.26-.33.41-.48.24-.25.49-.49.7-.77.17-.23.32-.48.49-.71.14-.18.31-.33.49-.47.64-.36.93-1.01,1.3-1.59.71-.56,1.01-1.37,1.33-2.18,1.41-1.84,1.41-1.88-.49-2.6-.27-.3-.48-.66-.8-.93-2.16-2.44-4.33-4.87-6.37-7.42-.35-.41-.76-.78-1.14-1.17-.2-.24-.19-.59-.44-.8-.63-.34-.97-.98-1.46-1.45-.14-.03-.08-.24-.23-.28,0,.2.21.18.26.31.45.51.78,1.13,1.44,1.43.25.21.22.58.45.8.37.4.79.76,1.14,1.18,2.03,2.55,4.19,5,6.38,7.42.25.24.44.53.55.86.12.64-.27.98-.76,1.26-2.22.78-4.07,2.25-6.19,3.23-.43.11-.87.12-1.31.1-.17,0-.34-.03-.51-.07-.16-.05-.31-.12-.46-.21-.66-.8-1.37-1.55-2.17-2.22-.37-.67-.79-1.31-1.43-1.76-.22-.23-.38-.5-.54-.77-.53-1-1.51-1.63-2.15-2.53-1.86-2.43-3.91-4.69-5.99-6.94-.17-.18-.32-.38-.47-.58-.42-.83-1.27-1.28-1.79-2.02-.21-.51-.21-1.02.02-1.53.87-.97,1.93-1.76,2.65-2.87.36-.34.8-.49,1.28-.56,1.37-.11,2.71-.58,4.11-.33.31.06.55.24.76.46.11.14.3.41.33.39,2.69-1.51,5.73-1.13,8.6-1.4,10.23-.96,20.46-2,30.72-2.38,4.51-.17,9.17.77,13.58,1.89,5.01,1.27,9.82,3.31,14.72,5.02,1.31-.05,2.38.64,3.5,1.14,1.78.8,3.5,1.73,5.28,2.54.78.36,1.67.71,1.78,1.78-.63,1.27-1.71.28-2.58.51-.47.53-.05,1,.18,1.45.48.96.16,1.68-.85,1.59-3.79-.33-5.58,2.77-8.12,4.58-.09.07-.14.23-.24.26-2.22.65-2.99,3.2-5.17,3.9-.17.05-.36.14-.45.29-1.98,3.12-5.65,4.5-7.78,7.48-1.57,2.2-4.23,3.35-5.85,5.33-1.49,1.82-3.81,2.84-4.7,5.22-.4,1.07-1.29,2.12-2.8,1.3.51-.55,1.02-1.1,1.66-1.79-5.76-1.28-11.27-2.42-17.01-1.62-17.51,2.45-35.03,4.86-52.55,7.28-1.89.26-3.78.55-5.67.82-2.63.11-5.26.22-7.89.33-2.43-.81-1.96-3.12-2.54-4.88-.62-4.12-1.29-8.23-1.85-12.35-.64-4.78-1.17-9.57-1.75-14.36.07-2.02.08-4.04.24-6.05.15-1.83,1.27-2.88,3.06-3.2,2.04-.37,4.09-.72,6.13-1.08Z"/>
  <path class="cls-22" d="M90.34,104.57c-3.91,2.53-7.83,5.04-11.72,7.59-1.06.69-1.25,1.75-1.23,2.97.07,3.45.02,6.9-.31,10.33-2.19-13.48-.75-26.69,3.2-40.05-1.03.35-1.85.5-2.53.89-2.84,1.62-5.75,3.16-8.4,5.06-1.35.97-2.31,2.56-3.24,4-.47.73-.76.98-1.65.78-2.26-.51-4.55-.86-6.82-1.28-.02-.1-.03-.2-.05-.3.02-2.26,0-4.52.07-6.77.04-1.23.23-2.46.35-3.7,5.2-2.63,10.37-5.3,15.6-7.87,2.78-1.36,5.64-2.55,8.47-3.8.24-.11.54-.08.44-.07-.13,3.95-.26,7.85-.39,11.75.61.79.72,1.76.85,2.7.8,5.92,3.2,11.18,6.57,16.04.37.53.86,1.01.79,1.74Z"/>
  <path class="cls-23" d="M468.37,110.68c1.65,1.23,3.43,2.32,4.93,3.71,6.82,6.31,11.32,13.99,13.27,23.1.26,1.21.31,2.46.46,3.69-4.05,3.62-7.94,7.45-12.53,10.42-1.29.84-2.41,2.01-4.06,2.19-5.7-.57-9.77-.4-11.02.5.41.93,1.27.68,1.98.74,1.77.14,3.57-.26,5.32.28.65.61.05.96-.32,1.27-.64.54-1.38.94-2.08,1.39-.98.36-2.01.3-3.01.23-1.36-.1-2.19.35-2.37,1.76-1.02,1.04-2.13,1.76-3.65.98-.57-.93-.39-1.97-.39-2.98-.04-4.95.37-4.35-4.48-4.38-1.49-.01-2.99-.07-4.48.04-1.85.13-2.16.46-2.18,2.3-.02,1.73.08,3.47-.03,5.2-.09,1.43.37,2.42,1.69,2.98.26,1.41-.93,1.33-1.69,1.55-5.23,1.54-10.56,2.63-15.97,3.25-5.71.65-11.43.99-17.18.83-.54-.01-1.08-.02-1.59-.23-.9-.55-.58-1.3-.34-2.05,1.46-4.47,3.63-8.66,5.15-13.11.74-2.17,1.84-4.05,3.85-5.37,1.6-1.05,2.61-2.76,3.99-4.07,1.44-.48,2.85.08,4.26.21,7.1.65,13.73-.84,19.76-4.57,6.08-3.77,10.47-9.04,12.95-15.82,1.18-3.24,1.63-6.6,1.74-10.03.03-.94-.2-1.93.46-2.77,2.42-1.06,5.06-.77,7.57-1.26Z"/>
  <path class="cls-7" d="M460.9,112.14c-.04,4.48-.34,8.9-2,13.14-2.41,6.18-6.32,11.12-11.79,14.88-4.52,3.11-9.48,5.08-14.95,5.31-3.48.15-6.98-.22-10.46-.36-2.62.16-4.87-1.09-7.07-2.15-4.04-1.95-7.61-4.62-10.42-8.19-.36-.46-.83-.87-.87-1.51-3.83-5.71-6.3-11.95-6.36-18.84-.04-4.75.75-9.48,2.94-13.84.64-1.27,1.12-2.61,1.67-3.92,2.09-3.62,5.06-6.44,8.28-9.02.29-.23.63-.32,1-.33.35,0,.7,0,1.06,0,.87-.15,1.43.52,2.08.86,2.38,1.26,4.96,2.06,7.35,3.25,1.89.94,3.68,1.57,5.76,1.32.42-.05.8.09,1.13.41,2,1.92,3.56,2.01,6,.56,1.02-.61,2.34-.76,3.17.11.72.76,1.43.9,2.33.98.7.06,1.76-.05,1.28,1.27-1.42.68-2.93.31-4.4.34-1.28.03-2.16.25-2.77,1.66-1.07,2.45-5.43,2.96-6.78.57-1.55-2.75-3.53-2.75-5.98-2.22-.17.02-.35.03-.52.06-.34.11-.58.37-.83.61-3.03,3.23-5.68,6.8-8.71,10.03-.94,1-1.05,1.94.05,2.93.89.8,1.72,1.67,2.47,2.6.84,1.04,1.68.95,2.59.1.7-.66,1.34-1.37,2.07-1.99.5-.43,1.05-.9,1.76-.57.73.34.69,1.08.61,1.73-.46,3.86-.74,7.74-1.19,11.59-.21,1.78-.19,3.58-.47,5.36-.21,1.31.43,1.82,1.74,1.81,6.41-.03,12.81,0,19.22-.02,1.62,0,1.84-.31,1.61-1.98-.74-5.39-.83-10.85-1.59-16.24-.11-.8-.28-1.81.66-2.24.93-.43,1.54.39,2.15.94.62.56,1.19,1.18,1.79,1.76.88.86,1.68.76,2.43-.17.71-.89,1.4-1.81,2.27-2.54,1.18-.99,1.27-1.91.16-2.98-.26-.25-.41-.59-.51-.94-.31-.06.52-.66-.25-.5-.69-.11-1.14-.51-1.46-1.11-.62-1.16-1.46-2.14-2.35-3.09-.56-.6-1.17-1.2-1.03-2.15.4-.92.99-.96,1.67-.34.95.88,2.02,1.39,3.33,1.58,1.17.17,1.84,1.04,1.96,2.25.05.46-.13.95.24,1.6,3.17-1.29,6.2-1.19,8.73,1.49.12,0,.24,0,.36,0,1.35,1.91,1.56,3.97.81,6.15Z"/>
  <path class="cls-2" d="M455.42,160.96c1.1-.38,2.19-.76,3.29-1.13.76-.65,1.69-.5,2.58-.5,5.98-.02,11.96,0,17.94-.02.8,0,1.67.18,2.44-.51-.7-.66-1.51-.5-2.24-.5-4.18-.02-8.37,0-12.55-.02-.87,0-1.82.19-2.49-.65.85-.68,1.7-1.37,2.55-2.05.28-.36.69-.46,1.09-.43,1.33.11,2.21-.5,2.79-1.64,5.15-3.15,9.85-6.86,14.17-11.08.56-.54,1.36-.83,2.05-1.23.24,1.34.73,2.68.69,4-.14,4.87-.46,9.74-.73,14.61,0,.15-.19.29-.29.43-.82.64-1.64,1.3-2.48,1.92-.46.35-.96.65-1.44.97-1.67-.53-3.4-.56-5.14-.55-5.2.03-10.41,0-15.61.02-.76,0-1.56-.15-2.36.44.63.8,1.5.58,2.25.59,5.44.03,10.89,0,16.33.03.97,0,2.09-.23,2.7.92-1.66,1.54-3.31,3.09-4.98,4.61-1.33,1.21-2.68,2.4-4.03,3.59-.23.01-.47.03-.7.04-1.1.6-2.3.57-3.5.57-17.63,0-35.26-.02-52.9.01-2.67,0-5.33.21-8,.32-.87-1.19.36-4.18,1.86-4.5,4.88-.12,9.78-.08,14.65-.4,7.3-.48,14.46-1.93,21.49-3.96.21-.06.33-.41.5-.63.74-.75,1.67-.57,2.54-.43,1.43.22,2.86.25,4.29.22,2.24-.04,2.3-.1,2.83-2.28.07-.3.19-.57.42-.77Z"/>
  <path class="cls-27" d="M459.73,105.98c-.4-.09-.94-.04-1.18-.28-2.2-2.24-4.64-1.77-7.16-.76-1.15.46-1.39,0-1.2-1.07.35-2.03-.26-2.58-2.18-2.98-1.24-.26-2.35-1.13-3.62-1.78-.03.03-.25.22-.47.41-1.63-.63-2.66-1.75-2.92-3.52-.42-.27-.82-.68-1.28-.77-.69-.13-1.43-.03-2.27-.03-.09-.44-.17-.85-.28-1.38-1.41,0-3.07-.7-3.46,1.6-1.8-.23-3.5-.45-5.32-.68-.16-.48-.34-1.02-.54-1.65-1.73.14-3.43.28-5.24.43.07-.22.17-.56.21-.72-3.66-1.85-7.28-3.68-10.9-5.51,2-1.19,3.89-2.68,6.03-3.51,4.5-1.74,9.28-2.25,14.08-1.84,4.54.39,8.96,1.56,12.8,4.03,2.87,1.85,5.56,4.09,7.97,6.52,2.93,2.95,5.06,6.52,6.16,10.61.26.96.51,1.92.77,2.87Z"/>
  <path class="cls-2" d="M410.87,87.31c-2.67,2.73-5.34,5.46-8.02,8.18-.4.41-.84.78-1.26,1.17-1.66-.88-3.38-1.68-4.98-2.66-4.35-2.66-8.66-5.38-12.97-8.11-.36-.23-.55-.71-.82-1.07.6-.65,1.4-.58,2.17-.59,6.36-.07,12.73.08,19.09-.08.36,0,.71.04,1.02.26,1.92.96,3.85,1.93,5.77,2.89Z"/>
  <path class="cls-7" d="M389.65,72.23c-2.01-.12-4.01-.25-6.02-.36-.59-.03-1.24.13-1.77-.05-.65-.22-1.22-.71-1.82-1.08.48-.53.88-1.4,1.45-1.53,1.25-.27,2.59-.17,3.89-.23,15.25,0,30.49,0,45.74,0,.42,0,.91-.1,1.24.08.56.3,1.43.82,1.41,1.19-.04.62-.58,1.38-1.13,1.74-.48.31-1.26.21-1.91.21-13.69.02-27.38.02-41.08.03Z"/>
  <path class="cls-27" d="M383.18,65.78c-2.82-.14-2.88-.21-2.83-2.9,17.11,0,34.21-.01,51.32.02.84,0,2.24-.63,2.18,1.18-.06,1.62-1.19,1.67-2.4,1.67-15.61,0-31.22,0-46.83,0-.48,0-.96.02-1.43.03Z"/>
  <path class="cls-7" d="M405.1,84.41c-.94.12-1.87.34-2.81.35-6.49.04-12.98.04-19.47.06-1.25.1-2.25-.3-2.88-1.45.06-1.71,1.3-1.79,2.54-1.79,6.11-.02,12.21-.02,18.32-.02,1.35,0,2.7,0,4.29,0v2.86Z"/>
  <path class="cls-7" d="M397.56,78.69c-4.59-.12-9.17-.24-13.76-.36-.54-.01-1.08-.01-1.61,0-1.1.03-2.19-.12-2.15-1.5.04-1.24,1.06-1.39,2.1-1.38,3.35.02,6.69,0,10.04,0,3.81,0,7.61,0,11.42.01.81,0,1.85-.18,1.82,1.09-.02,1.09-.4,1.84-1.82,1.82-2.01-.04-4.03.2-6.04.32Z"/>
  <path class="cls-2" d="M460.9,112.14c-.27-2.05-.54-4.1-.81-6.15.2-.1.49-.35.59-.29,2.58,1.64,5.13,3.32,7.69,4.99-1.21.35-2.41.77-3.64,1.01-1.26.24-2.55.3-3.83.44Z"/>
  <path class="cls-18" d="M179.11,51.75l-.32,1.09c-1.25.63-1.14,1.77-1.06,2.89-1.81,5.26-3.63,10.52-5.44,15.78-6.01-.11-12.02-.22-18.03-.33-.11.09-.21.07-.3-.04-1.12-5.33-3.73-9.96-7.37-13.87-2.94-3.15-6.4-5.82-9.76-8.82,1.33-.77,3.01-1.79,4.75-2.72,8.61-4.6,16.65-9.97,23.82-16.65,2.55-2.37,5.51-4.3,8.29-6.44.9-.19,1.81-.55,2.71-.52.76.03,1.76.29,2.21.83,1.57,1.84,1.28,4.15,1.2,6.36-.09,2.49-.26,4.97-.34,7.46-.11,3.62-.15,7.24-.23,10.86-.03,1.37-.08,2.74-.13,4.12Z"/>
  <path class="cls-21" d="M137.62,67.19c.33,1.32.65,2.65.98,3.97.5.56.66,1.25.77,1.97.95,6.02,2.18,11.98,3.11,18,.14.91.56,1.86-.03,2.78-1.57.7-3.28.51-4.92.68-4.39.46-8.76,1.01-13.13,1.67-.89.13-1.77.31-2.64-.07-.68-.42-.84-1.12-.97-1.83-.72-3.92-1.48-7.83-2.03-12.14-.74,5.39-1.81,10.38-2.59,15.43-.3,1.4-1.32,1.71-2.56,1.71-2.69-.01-5.37.06-8.06-.03-3.16-.03-6.32.1-9.49,0-1.9-.06-2.39-.59-2.09-2.44.92-5.59,1.91-11.17,2.91-16.75.1-.54.28-1.04.66-1.44.23-.35.45-.69.68-1.04.49-4.61,7.2-11.32,13.18-11.01,8.07.42,16.12-.49,24.18-.84,1.27-.06,1.59.59,2.04,1.39Z"/>
  <path class="cls-1" d="M86.03,64.31c4.41-8.19,10.93-14.1,19.58-17.46,7.01-2.72,14.3-3.15,21.62-1.39,2.85.68,5.59,1.85,8.38,2.79-.02.21-.03.42-.05.63-1.21.65-2.39,1.39-3.64,1.95-7.46,3.33-14.95,6.6-22.41,9.93-1.87.83-3.69,1.77-5.53,2.66-.34.82-1.05.55-1.67.57-.69-.08-1.53-.69-1.88.5-.1.22-.22.42-.45.52-1.61.59-3.26,1.1-4.83,1.77-3.61,1.54-7.21,3.12-10.78,4.76-.94.43-1.2.22-1.16-.72.65-2.3,1.26-4.62,2.82-6.52Z"/>
  <path class="cls-30" d="M142.37,93.75c-1.24-7.18-2.48-14.36-3.71-21.54-.06-.35-.05-.7-.07-1.05,5.12,0,10.25-.01,15.37-.02.1.02.2.03.3.04.38,3.58.93,7.15,1.09,10.75.15,3.49-.23,6.98-1.63,10.27-.15.36-.09.82-.13,1.23-.21.13-.43.26-.64.4-3.32.17-6.65.14-9.97.51-.34-.04-.61-.17-.61-.58Z"/>
  <path class="cls-30" d="M97.54,78.69c-.66,4.05-1.3,8.1-1.97,12.15-.43,2.57-.89,5.13-1.4,8.09h11.29c.29.68-.23.82-.68.98-4.37,1.54-8.81,2.89-13.07,4.73-.34.15-.69.19-1-.08-.12,0-.24,0-.36.01-4.79-6-7.53-12.83-8.21-20.48,4.51-1.67,9.01-3.35,13.53-4.99.6-.22,1.25-.27,1.88-.4Z"/>
  <path class="cls-10" d="M101.85,63.63c.71-.07,1.43-.14,2.14-.21,1.61.05,3.21.14,4.82.15,8.48.01,16.95,0,25.43,0q2.99,0,3.26,2.91c.02.24.08.47.12.71-.61-.78-1.26-.95-2.33-.8-2.4.34-4.85.35-7.28.43-4.94.15-9.9.61-14.81.29-7.17-.48-12.07,4.4-14.54,9.79-.12.26-.29.5-.43.75.2-1.77.35-3.54.6-5.3.35-2.45.77-4.89,1.16-7.33.08-.18.16-.35.24-.53.19-.95.94-.85,1.62-.86Z"/>
  <path class="cls-30" d="M86.03,64.31c-.94,2.17-1.88,4.35-2.82,6.52-.68-2.35,1.38-4.02,1.56-6.17.01-.15.82-.23,1.26-.35Z"/>
  <path class="cls-28" d="M180.45,259.72c1.44,0,2.25-.66,2.67-2.09.19-.65.87-1.21,1.42-1.71.89-.8,2.32-1.11,2.22-2.73,0-.13.17-.31.31-.42,1.2-.88,2.33-1.89,3.63-2.59,2.05-1.12,2.97-3.3,4.72-4.67,1.35-1.06,3.07-1.82,4.08-3.13,1.21-1.58,2.41-2.95,4.25-3.77.26-.11.17-1,.56-1.14,2.04-1.52,4.24-2.88,6.07-4.62,1.41-1.34,2.77-2.13,4.71-1.86.38.05.78-.08,1.17-.13-.37-1.08-.71-2.07-1.04-3.04,1.38-.06,2.42-.11,3.45-.16,2.35-1.78,4.96-3.1,7.69-4.18,2.12-.76,4.26-1.48,6.37-2.27,7.73-2.93,14.49-.46,20.97,3.69,1.93,1.24,3.91,2.42,5.86,3.63,1.08.14,1.72.95,2.44,1.63,2.6,1.15,4.83,2.87,7.07,4.58,4.33,3.06,8.19,6.69,12.39,9.91.44.34,1,.71.76,1.45-.39.4-.99.62-1.12,1.25,1.12.26.74-.81,1.1-1.23,1.91.07,2.77,1.81,4.17,2.68.48.29.85.82,1.23,1.28,2.09,1.92,4.18,3.85,6.27,5.77.53.49,1.06.96,1.59,1.45.13.48-.47,1.03.14,1.46.09.07.17.15.16.29.09-.21-.13-.26-.14-.41-.04-.31,0-.58.29-.77.83.65,1.66,1.31,2.49,1.96.12.07.22.16.28.28,2.92,2.75,5.84,5.49,8.76,8.24-1.83.34-2.83-.65-3.69-2.12-.79-1.36-1.78-2.43-3.49-3-1.58-.54-2.83-1.99-4.33-2.89-.96-.58-2.1-.87-3.15-1.3-.53-.22-1.09-.39-1.55-.72-1.25-.89-2.49-1.79-3.65-2.79-.62-.53-1.07-1.26-1.72-2.06-1.82,1.11-2.85-.98-4.13-1.85-2.22-1.5-4.3-2.91-7.04-3.56-1.87-.45-3.34-2.38-5.14-3.38-3.9-2.16-7.91-4.13-11.85-6.21-.94-.5-1.73-1.29-2.7-1.69-3.09-1.27-6.29-2.29-9.34-3.64-1.74-.77-3.36-1.94-5.35-1.36-1.62.47-3.19,1.15-4.69,1.92-1.15.59-2.14,1.48-3.23,2.21-.44.3-.95.74-1.41.73-3.74-.09-5.87,2.85-8.65,4.54-1.6.98-3.08,2.17-4.67,3.16-2.69,1.68-5.46,3.22-8.13,4.92-1.24.79-2.26,1.95-3.5,2.75-2.97,1.93-6.09,3.65-9.01,5.66-2.27,1.57-4.3,3.5-6.48,5.21-2.36,1.85-4.95,3.46-7.12,5.5-2.13,2.01-4.91,3.01-6.98,5.17-1.56,1.63-3.92,2.46-5.84,3.78-1.32.91-2.47,2.06-3.72,3.06-2.17,1.74-4.38,3.43-6.53,5.2-.89.73-1.57,1.76-2.52,2.38-1.92,1.24-3.98,2.26-5.95,3.42-.84.5-1.55,1.24-2.41,1.7-.88.48-1.87.76-2.81,1.12,2.36-2.52,4.71-5.05,7.1-7.54,3.72-3.88,7.43-7.76,11.22-11.57,1.77-1.78,3.77-3.32,5.54-5.1,2.27-2.3,4.38-4.76,6.61-7.1,1.05-1.11,2.2-2.11,3.31-3.16Z"/>
  <path class="cls-13" d="M408.7,169.21c-.72,1.43-1.44,2.86-2.16,4.29.13.48.12.96-.07,1.41-1.39,3.3-2.62,6.67-4.08,9.93-1.14,2.55-2.34,5.08-3.4,7.67-1.61,3.92-3.33,7.79-5.38,11.5-.96,1.72-1.85,3.47-2.89,5.14-1.3,2.08-2.58,4.21-4.12,6.1-1.29,1.58-2.95,2.86-4.44,4.28-.25.01-.5.02-.74.04-.57.38-1.22.46-1.88.49-3.27.16-6.56-.36-9.81.58-1.28.37-2.49-.78-3.84-.64-.92-.16-1.73-.54-2.41-1.18-1.17-.95-2.42-1.81-3.48-2.87-1.35-1.35-3.48-2.02-3.84-4.26-.29-.94.34-1.62.74-2.3,2.6-4.36,5.38-8.59,8.86-12.33.82-.89,1.74-1.63,2.7-2.33,1.93-1.4,3.2-3.33,4.37-5.34,1.17-1.62,2.43-3.18,3.5-4.86,1.85-2.88,3.6-5.83,5.35-8.77.26-.43.33-.97.49-1.46,1.45-1.66,1.99-3.87,3.49-5.55.67-.75,1.52-1.03,2.17-1.67-.35-2.27,1.87-3.18,2.64-4.89.65-1.42,2.03-2.5,2.98-3.8,1.13-1.56,2.13-3.21,3.22-4.79,1.35-1.95,2.75-3.87,4.12-5.81.03-.04,0-.14.04-.17,2.38-1.88,2.02-4.23,1.5-6.85-.4-2.01-.14-4.17-.04-6.26.02-.43.67-.83,1.04-1.24,2.22,2.13,4.33,4.4,6.7,6.35,3.39,2.8,7.5,4.24,11.66,5.51-1.79,1.83-3.58,3.65-5.37,5.49-.33.33-.75.64-.91,1.05-1.55,3.96-3.06,7.93-4.58,11.9-.72,1.88-1.42,3.77-2.13,5.66Z"/>
  <path class="cls-29" d="M393.61,204c.75-1.88,1.48-3.77,2.26-5.64,1.76-4.24,3.52-8.49,5.34-12.71,1.5-3.48,3.09-6.92,4.63-10.38.26-.58.47-1.18.7-1.78,1.23-.6,2.39-1.12,3.83-.3.48.28,1.42-.38,2.15-.38,19.58-.02,39.15-.01,58.73,0-2.92,2.23-5.76,4.58-8.77,6.67-3.91,2.71-7.88,5.36-11.97,7.79-7.78,4.64-15.86,8.73-24.45,11.65-7.39,2.51-14.93,4.42-22.79,4.78-3.21.15-6.43.2-9.64.3Z"/>
  <path class="cls-27" d="M378.03,51.37c-3.48-.06-3.07.52-3.07-3,0-3.18-.35-2.7,3-2.71,3.61-.02,3.06-.33,3.07,2.81.01,3.34.42,2.85-2.99,2.9Z"/>
  <path class="cls-7" d="M401.11,50.63c.46-.69.93-1.38,1.49-2.22-.4-.44-.89-.87-1.25-1.39-.19-.28-.17-.7-.25-1.06.37,0,.89-.16,1.07.02,1.12,1.1,2.12,1.56,3.15-.1.1-.16.63-.04.97-.06,0,.38.14.97-.04,1.09-1.6,1.06-1.3,2.04-.02,3.11.17.15.16.65.07.93-.05.14-.48.16-.75.21-.06.01-4.03-.28-4.45-.54Z"/>
  <path class="cls-27" d="M391.36,47.82c.84,0,1.68-.06,2.51.04.28.03.51.48.77.73-.25.2-.49.57-.74.58-1.73.05-3.47.06-5.21,0-.26,0-.5-.48-.76-.74.25-.2.48-.56.74-.58.89-.07,1.79-.03,2.69-.03Z"/>
  <path class="cls-29" d="M80.93,14c-2.68.76-5.02.27-7.67.4,1.09-1.29,5.8-1.45,7.67-.4Z"/>
  <path class="cls-30" d="M87.19,11.04c.76.56,1.52,1.13,2.34,1.74.46-.43.91-.92,1.43-1.3.24-.17.63-.13.95-.19-.03.37.09.91-.11,1.07-1.34,1.05-1.24,1.99.02,3.02.19.15.13.62.18.93-.37-.04-.9.06-1.07-.14-1.08-1.33-1.98-1.21-2.99.1-.19.25-.89.12-1.75.2.9-1.24,1.82-1.96,1.85-2.72.02-.7-.91-1.43-1.42-2.15.19-.19.37-.38.56-.56Z"/>
  <path class="cls-29" d="M60.65,16.56v-5.4c1.77,0,3.53-.03,5.29.03.24,0,.66.4.68.64.07,1.31.09,2.63-.01,3.94-.02.29-.59.74-.93.75-1.6.08-3.21.04-5.03.04Z"/>
  <path class="cls-7" d="M480.95,164.57c-.75-.12-1.5-.35-2.26-.35-5.85-.03-11.7-.02-17.55-.02-.48,0-1.01.12-1.42-.05-.41-.17-1.04-.73-.98-.96.13-.45.63-1.07,1.03-1.11,1.42-.14,2.86-.06,4.29-.06,5.49,0,10.98-.04,16.47.05.75.01,1.49.68,2.24,1.04-.61.48-1.22.96-1.82,1.45Z"/>
  <path class="cls-26" d="M404.79,265.51c0,6.4.03,12.8-.01,19.2-.02,2.87-.22,3-3.08,3-12.39,0-24.77-.03-37.16.05-1.52,0-2.05-.59-2.15-1.89-.06-.77-.08-1.55-.08-2.33,0-12.03,0-24.05,0-36.08,0-4.21.02-4.21,4.25-4.21,11.79,0,23.58,0,35.37,0,2.62,0,2.84.15,2.85,2.87.04,6.46.01,12.92.01,19.38,0,0,0,0,.01,0Z"/>
  <path class="cls-16" d="M444.94,243.31c1.02-.89,1.93-1.99,3.09-2.61,2.25-1.22,4.38-.69,6.23,1.05,1.37,1.29,2,3.97,1.3,5.82-.87,2.27-2.56,3.7-4.96,3.81-2.45.11-4.27-1.28-5.65-3.23-1.16-1.61-.93-3.22,0-4.84Z"/>
  <path class="cls-26" d="M444.94,243.31c0,1.61,0,3.22,0,4.84-.2,0-.4.01-.6.02-.15-.06-.3-.06-.45,0l-.64.02c-1.22-.19-2.44-.18-3.66,0h-5.68c-.72-.26-1.49.05-2.21-.21-1.28-.4-1.88-1.35-1.65-2.6.26-1.4,1.28-2.09,2.72-2.09,4.06.01,8.12.03,12.18.04Z"/>
  <path class="cls-29" d="M427.75,261.19c-4.37,0-8.74.04-13.11-.04-.62-.01-1.22-.6-1.83-.91.61-.3,1.22-.86,1.83-.86,8.73-.06,17.45-.05,26.18-.03.72,0,1.8-.26,1.61.98-.06.36-1.02.82-1.57.83-4.37.07-8.74.04-13.11.04Z"/>
  <path class="cls-29" d="M427.56,264.8c-4.37,0-8.73.03-13.1-.04-.55,0-1.09-.56-1.64-.86.55-.32,1.1-.92,1.66-.92,8.85-.06,17.71-.06,26.56,0,.49,0,.99.53,1.48.82-.5.34-.99.95-1.5.96-4.49.08-8.97.04-13.46.04Z"/>
  <path class="cls-29" d="M421.47,257.62c-2.39,0-4.78.05-7.16-.05-.45-.02-.87-.64-1.31-.98.43-.28.87-.81,1.3-.82,4.72-.06,9.44-.07,14.15,0,.48,0,.96.61,1.44.94-.48.3-.95.84-1.43.85-2.33.09-4.66.04-6.99.04Z"/>
  <path class="cls-16" d="M439.58,248.17c1.22,0,2.44,0,3.66,0-1.22,0-2.44,0-3.66,0Z"/>
  <path class="cls-16" d="M431.68,247.95c.74.07,1.48.14,2.21.21-.74-.07-1.48-.14-2.21-.21Z"/>
  <path class="cls-16" d="M443.88,248.15c.15,0,.3,0,.45,0-.15,0-.3,0-.45,0Z"/>
  <path class="cls-12" d="M372.81,189.36c-.14,2.68-2.3,3.96-3.91,5.62-2.2,2.27-4.65,4.35-6.53,6.86-2.32,3.09-4.18,6.53-6.23,9.83-2.14,1.84-3.43-.39-4.86-1.18-2.84-1.57-5.46-3.53-8.26-5.18-1.13-.67-1.92-2.28-3.66-1.59-.11-.44-.06-1.1-.34-1.3-3.41-2.46-6.87-4.85-10.54-7.43-3.31,7.57-7.45,14.4-16.41,16.39.05.18.1.36.15.55,4.99.33,9.97.67,15.21,1.02,0,.46.07,1.03-.01,1.58-.68,4.64-1.35,9.28-2.08,13.91-.83,5.28-1.62,10.57-2.59,15.82-.69,3.73-1.55,7.43-2.52,11.09-.51,1.92-1.23,3.84-2.19,5.58-1.28,2.33-3.05,2.4-4.45.08-2.21-3.65-4.07-7.51-6.14-11.25-1.39-2.52-2.82-5.02-4.36-7.46-.48-.77-1.3-1.36-2.04-1.94-1.87-1.48-4.29-.65-6.58,1.3-2.01,1.71-3.65,3.84-5.49,5.76-.51.54-1.13.98-1.76,1.51.09.28.23.71.37,1.15-1.79-1.34-3.57-2.68-5.36-4.01,0,0,0,0,0,0-2.28-1.95-4.54-3.93-6.86-5.85-2.16-1.78-4.38-3.48-6.57-5.21-1.18-.99-1.33-2.04-.81-3.58,1.02-3,1.25-6.21,1.45-9.36.14-2.27.77-4.45.96-6.71.16-1.97,1.43-3.63,2.68-5.19.66-.83,1.45-1.59,1.8-2.86-2.9-1.83-6.22-3.35-7.08-7.2-.12,0-.23-.01-.34-.03-.3-.31-.52-.67-.58-1.09-.81-5.54-2.03-11.02-.92-16.71.67-3.44,1.36-6.86,2.42-10.22-3.62,3.33-5.58,7.42-5.79,12.29-.07,1.61-.09,3.21-.47,4.8-.62,2.58-2.4,3.83-4.79,4.21-4.28.68-8.45,1.6-12.16,3.99-1.09-.19-1.33-1.02-1.53-1.94-.34-1.57-.68-3.14-1.22-4.66-.74-4.26-1.39-8.53-2.29-12.75-.2-1.41.55-2.21,1.71-2.82,2.62-1.38,5.23-2.77,7.9-4.05,2-.96,3.97-2.08,5.85-3.33,1.15-.77,2.6-.97,3.88-1.64,2.48-1.28,4.81-2.84,7.33-4.01,1.54-.72,3.05-1.52,4.64-2.16,1.77-.71,3.39-1.84,5.22-2.48,2.05-.56,4.1-1.11,6.15-1.67,1.3.22.71,1.17.63,1.81-.3,2.43-.73,4.81-.41,7.3.74,5.72,4.15,9.14,9.32,10.95,7.31,2.56,13.77.34,19.71-3.96,2.28-1.65,4.27-3.65,5.92-5.96,1.95-2.72,3.35-5.64,3.64-9.03.07-.84-.09-2.12,1.5-1.74,5.16,1,10.33,1.97,15.48,3.01.72.14,1.37.58,2.06.88.41.48.78,1.03,1.25,1.44,7.28,6.32,14.68,12.49,21.81,18.97,3.29,2.99,6.04,6.56,9.04,9.87Z"/>
  <path class="cls-10" d="M295.89,259.02l-1.3-.86c.3-.29.59-.58.89-.86.15.19.3.38.45.56-.01.39-.02.78-.04,1.16h0Z"/>
  <path class="cls-10" d="M298.7,260.1c-.09-.09-.19-.19-.28-.28.09.09.19.19.28.28Z"/>
  <path class="cls-16" d="M363.46,218.79c.71.25,1.41.5,2.12.75.96.4,1.95.69,2.93,1.03.5.17,1.07.32.7,1.06,0,0-.03.03-.03.03-.24.46-.66.91-.68,1.39-.08,1.79-.1,3.58-.01,5.37.07,1.45-.59,2.2-1.94,2.19-2.85-.04-5.7-.21-8.55-.31-1.29-.05-1.77-.75-1.75-1.97.03-2.15-.02-4.3.02-6.44.03-2.04.91-2.63,2.95-2.56,1.41.05,2.83-.33,4.25-.52Z"/>
  <path class="cls-2" d="M369.21,221.64c-.98-.47-1.97-.92-2.94-1.43-.27-.14-.46-.44-.69-.66.92.15,1.83.29,2.75.44.52.08,1.11.36,1.54.2,3.79-1.41,7.7-.35,11.54-.63,0,.22,0,.43,0,.65l-.02.02c-2.84,1.94-5.99,2.56-9.35,2.14-.96-.12-1.89-.48-2.83-.72Z"/>
  <path class="cls-5" d="M381.41,220.2c.3.83.59,1.67.89,2.5-.26.06-.52.12-.77.18-.05-.89-.09-1.77-.14-2.66,0,0,.02-.02.02-.02Z"/>
  <path class="cls-16" d="M431.06,234.18l.2.54c-.12-.13-.24-.27-.36-.4.05-.04.11-.09.16-.14Z"/>
  <path class="cls-16" d="M432.33,235.79c-.13-.13-.26-.26-.38-.39.18.07.36.13.54.2-.05.06-.11.13-.16.19Z"/>
  <path class="cls-22" d="M179.82,158.44c0,12.14,0,24.29,0,36.43,0,3.35-1.54,4.88-4.89,4.88-19.21,0-38.42,0-57.62,0,1.2-1.38,2.31-2.85,3.62-4.11,3.42-3.28,6.91-6.5,10.42-9.69,1.35-1.22,2.85-2.28,4.29-3.41.84-.82,1.9-.59,2.89-.59,9.57-.02,19.13,0,28.7-.02.83,0,1.67.13,2.63-.29-.79-.5-1.55-.35-2.27-.35-8.73-.01-17.46,0-26.19-.02-.99,0-2.06.22-2.89-.59,2.21-1.63,4.34-3.4,6.65-4.87,4.24-2.7,8.5-5.38,12.92-7.77,4.08-2.21,8.35-4.05,12.56-6,2.62-1.21,5.29-2.34,7.95-3.47.36-.15.82-.1,1.23-.14Z"/>
  <path class="cls-6" d="M90.7,104.55c4.25-1.63,8.51-3.26,12.76-4.89.66-.25,1.33-.49,1.99-.74,3.23,0,6.45,0,9.71,0,.26-.63.46-1.1.66-1.57.92-1.4,3.77-1.94,5.88-1.11.61,1.77,1.92,2.08,3.65,2.05,4.95-.09,9.91-.02,14.86-.04,2.21,0,2.21-.02,2.13-2.13-.03-.66-.08-1.32.36-1.89,1.13-.26,2.26-.71,3.39-.73,2.29-.03,4.57.19,6.86.3-.72,1.81-1.22,3.75-2.2,5.41-5.99,10.16-14.8,16.47-26.5,18.21-13.08,1.95-24.06-2.45-33.1-11.94-.23-.24-.3-.62-.45-.94Z"/>
  <path class="cls-8" d="M179.47,154.12c-.24-.53-.55-1.04-.69-1.59-.13-.56-.08-1.17-.53-1.48-.71-.7-1.48-1.35-2.12-2.11-.68-.8-1.2-1.73-1.87-2.54-1.47-1.77-3.25-3.34-4.43-5.28-1.51-2.48-3.67-4.39-5.29-6.71-1.31-1.87-2.05-4.13-3.06-6.2-1.05-2.14-2.52-4.18-3.08-6.44-.54-2.17-2.23-3.91-2.01-6.38.14-1.64-.42-3.33-.63-5.01-.05-.41-.07-.89.1-1.23.31-.61.77-1.13,1.17-1.69.53.41,1.09.79,1.58,1.25.29.27.43.72.73.99.26.24.64.45.97.47.14,0,.46-.56.43-.82-.18-1.32-.13-2.81-.76-3.89-.96-1.65.22-2.86.22-4.33.98-.2,1.79-.48,2.13.87.31,1.22.84,2.4,1.34,3.57.17.41.53.73.8,1.1.21-.43.58-.85.59-1.29.06-2.33.12-4.67,0-7-.08-1.55.21-2.65,2.19-2.97.22.55.59,1.15.68,1.79.11.77-.05,1.55,1.05,1.78.21.04.34.79.4,1.23.43,2.96.83,5.92,1.24,8.88.34-.01.68-.02,1.01-.03.21-2.8.33-5.62.68-8.4.15-1.16.73-2.29,1.23-3.38.13-.28.7-.54,1.02-.49.24.04.42.58.58.92,1.61,3.61,1.43,7.44,1.49,11.27.04,2.99.42,5.98.71,8.96.03.34.49.64.75.96.22-.36.47-.7.65-1.08.27-.58.48-1.18.72-1.77.11-.16.22-.16.34-.01l.05.04c.59.7.52,1.56.52,2.39.01,8.04.05,16.09-.05,24.13-.04,3.27.09,6.53-.05,9.8.03.55.03,1.11-.25,1.61-.14.21-.33.26-.56.15Z"/>
  <path class="cls-1" d="M118.78,140.44c-10.71,0-21.43,0-32.14,0-.54,0-1.25.19-1.58-.08-.72-.57-1.65-1.36-1.71-2.12-.05-.61.99-1.4,1.68-1.94.3-.24.93-.08,1.4-.08,21.43,0,42.85,0,64.28.01.71,0,1.53-.05,2.09.28.62.36,1.41,1.15,1.38,1.72-.04.7-.73,1.51-1.35,1.98-.45.33-1.26.22-1.91.22-10.71.01-21.43,0-32.14,0Z"/>
  <path class="cls-1" d="M118.64,148.7c-10.71,0-21.43,0-32.14,0-.65,0-1.45.08-1.91-.25-.6-.44-1.29-1.25-1.28-1.89,0-.61.75-1.4,1.37-1.78.55-.34,1.38-.29,2.09-.3,21.43-.01,42.86,0,64.29,0,.65,0,1.45-.07,1.9.26.59.43,1.21,1.22,1.25,1.89.04.57-.61,1.38-1.17,1.74-.54.34-1.37.32-2.07.32-10.77.02-21.55.01-32.32.01Z"/>
  <path class="cls-1" d="M118.74,152.73c10.66,0,21.32,0,31.98,0,.48,0,.96-.02,1.44.02,1.24.11,2.07.79,2.1,2.03.04,1.35-.85,2.04-2.16,2.16-.42.04-.84.01-1.26.01-21.32,0-42.64,0-63.96,0-2.64,0-3.71-.63-3.67-2.15.03-1.49,1.08-2.07,3.73-2.07,10.6,0,21.2,0,31.8,0Z"/>
  <path class="cls-6" d="M138.51,180.68c10.11.01,20.21.02,30.32.04.48,0,1-.1,1.42.07.36.14.59.6.87.91-.29.26-.54.64-.87.74-.44.13-.95.05-1.42.05-11.06.02-22.12.03-33.19.05-.77-.01-1.55.06-2.3-.07-.35-.06-.62-.51-.93-.78.32-.32.62-.91.96-.93,1.71-.1,3.43-.06,5.14-.07Z"/>
  <path class="cls-1" d="M93.76,180.72c5.86,0,11.73-.02,17.59.04.54,0,1.07.54,1.61.83-.56.3-1.12.85-1.68.85-11.73.05-23.45.05-35.18,0-.52,0-1.04-.58-1.56-.88.55-.28,1.09-.8,1.64-.8,5.86-.06,11.73-.04,17.59-.04Z"/>
  <path class="cls-30" d="M68.74,179.27c1.3,0,2.19.98,2.21,2.45.02,1.54-.99,2.06-2.27,2.19-1.13.11-2.41-1.23-2.39-2.38.02-1.33,1.03-2.26,2.45-2.26Z"/>
  <path class="cls-29" d="M179.79,154.13c.02-.46.04-.93.05-1.39,1.99.69,3.25,2.38,3.17,4.24-1.06.24-2.12.49-3.19.73,0-.72-.01-1.44-.02-2.16-.24-.47-.22-.95-.02-1.42Z"/>
  <path class="cls-5" d="M179.8,116.01h-.17s-.17.01-.17.01c.12-1.91.23-3.81.35-5.72,0,1.9,0,3.81,0,5.71Z"/>
  <path class="cls-5" d="M179.81,97.73c0,.36,0,.72,0,1.08-.21-.21-.42-.42-.64-.62.21-.15.43-.3.64-.45Z"/>
  <path class="cls-5" d="M179.79,154.13c0,.47.01.95.02,1.42-.11-.48-.23-.95-.34-1.43.11,0,.21,0,.32,0Z"/>
  <path class="cls-13" d="M183.01,156.98c-1.06-1.41-2.11-2.83-3.17-4.24-.11-2.41-.32-4.81-.31-7.22.02-3.63.24-7.26.27-10.89.06-6.19.04-12.38.05-18.57.67-.49,1.29-1.12,2.03-1.44,1.23-.53,1.8-.05,1.93,1.36.32,3.36-.95,6.33-2.03,9.37-.37,1.04-.7,2.12-.9,3.2-.26,1.42.09,2.59,1.33,3.6,2.15,1.75,4.16,3.67,6.17,5.58,1.4,1.33,2.69,2.78,4.03,4.18,1.29.84,2.14,2.22,3.55,2.9,2.16,1.92,4.31,3.84,6.47,5.76,3.19,2.89,6.58,5.55,9.62,8.6,5.47,5.48,11.3,10.57,16.83,15.99,1.48,1.45,3.18,2.69,4.6,4.24.77.84,1.72,1.02,2.75.36,1.19-.76,2.45-1.24,3.9-.91.51.23.64.71.65,1.19.05,2.02.39,3.99.82,5.96.35,1.58.77,3.15,1.06,4.74.49,1.42.95,2.84,1.48,4.24.29.77.71,1.5,1.07,2.25,1.05.38,1.47,1.04.96,2.12-2.01.72-3.97,1.62-6.04,2.11-3.62.85-7.3,1.42-10.95,2.15-2.25.45-4.28-.46-5.75-1.75-3.8-3.32-7.31-6.98-10.9-10.54-1.52-1.5-3.01-3.04-4.39-4.66-2.91-3.4-5.73-6.87-8.61-10.3-.98-1.17-2.05-2.26-3.03-3.43-3.36-4.02-6.69-8.08-10.05-12.1-1.1-1.32-2.29-2.56-3.43-3.84Z"/>
  <path class="cls-5" d="M239.83,178.95c-1.29.54-2.54,1.3-3.89,1.56-.85.17-2.1-.11-2.73-.68-3.53-3.19-6.91-6.55-10.37-9.82-1.96-1.85-4.01-3.61-5.98-5.45-4.53-4.23-9.05-8.47-13.56-12.72-.36-.34-.58-.85-.87-1.28,3.79-.74,7.56-1.58,11.38-2.19,3.75-.6,7.52-1.09,11.31-1.39,3.68-.29,7.39-.41,11.08-.37,8.1.1,16.14,1,24.07,2.68,4.65.98,9.22,2.3,13.84,3.4.31.07.75-.38,1.13-.59.48,1.8.97,3.59,1.45,5.39-1,.56-2.34.89-2.94,1.74-1.11,1.55-2.99,1.11-4.28,2.16-1.13.92-2.61,1.39-3.92,2.09-1.29.69-2.53,1.49-3.85,2.12-1.64.79-3.37,1.39-4.99,2.2-1.69.84-3.27,1.88-4.94,2.76-1.98,1.04-4.22,1.72-5.97,3.05-1.8,1.36-4.84,1.26-5.34,4.25-.32.3-.2.85-.62,1.09Z"/>
  <path class="cls-2" d="M195.97,144.8c-1.88-.11-2.67-1.57-3.55-2.9,1.9.1,2.69,1.55,3.55,2.9Z"/>
  <path class="cls-2" d="M387.83,167.06c-.48.55-1,1.09-1.45,1.67-1.42,1.84-2.81,3.7-4.21,5.55.11-1.17-.44-1.46-1.57-1.51-1.72-.07-3.48-.25-5.14-.68-2.19-.57-3.36-2.31-3.4-4.5-.02-1.01,0-2.02,0-3.03,3.81.77,7.61,1.59,11.44,2.27,1.41.25,2.88.16,4.32.23Z"/>
  <path class="cls-13" d="M286.17,139.09c-2.01-4.46-1.75-9.05-.8-13.68,1.53-.57,2.92.2,4.28.6,4.74,1.4,9.64,2.2,14.32,3.81.55.19,1.18.11,1.78.08,1.1,0,2.2-.02,3.3.05.96.15,1.92.31,2.87.46.77.23,1.04.92,1.4,1.54,1.08,1.91,2.75,2.53,4.84,1.86.6-.19,1.19-.67,1.85-.15-.24.47-.48.95-.71,1.42-.93,1.89-2.72,1.92-4.4,1.81-3.21-.2-3.8.16-4.54,3.37-.08.35-.14.7-.41.97-.78.09-.62-.76-1.04-1.03-3.38,3.22-7.71,4.17-12.09,4.91,0,.66.46.59.76.6,2.75.07,5.5.18,8.17-.63.76-.23,1.52-.45,2.06.42.36-.9.22-2.21,1.73-2.24.32.29.34.66.32,1.06-.02.29-.07.58-.1.87-.07,1.98-.48,3.92-.7,5.88-.2,1.76.15,2.14,1.92,2.18,1.68.03,3.35.08,4.95.68,1.01,1.5.62,3.09.24,4.64-1.07,4.29-3.94,7.15-7.66,9.24-2.08,1.17-4.33,1.98-6.6,2.76-5.51,1.9-13.87-1.74-14.89-9.57-.28-2.18.48-4.11,1.08-6.1.71-.99,1.84-1.03,2.89-1.19.86-.13,1.44-.49,1.7-1.34.64-2.11,1.29-4.23,1.96-6.34.31-.96-.01-1.44-1-1.64-1.17-.23-2.31-.63-3.41-1.11-1.93-.83-3.48-2.05-4.06-4.2Z"/>
  <path class="cls-4" d="M288.33,154.82c-.13.69-.2,1.41-.41,2.08-2.22,7.09,3.76,14.54,11.81,13.51,5.61-.72,10.74-3.17,14.18-8.11,1.71-2.44,2.37-5.17,2.07-8.13.4-.48.96-.49,1.48-.38,1.88.39,3.94-.03,5.64,1.18.03.07.05.15.05.22-.35.4-.98.78-1,1.2-.31,6.07-3.64,10.46-7.88,14.34-4.72,4.31-10.26,6.9-16.69,6.66-5.92-.21-10.96-2.58-13.81-8.1-1.62-3.14-1.61-6.63-1.05-10.1.18-1.1.08-2.24.12-3.36.03-.09.07-.17.11-.24,1.73-.7,3.4-1.85,5.38-.76Z"/>
  <path class="cls-9" d="M323.12,154.98c-2.37-.27-4.75-.53-7.12-.8-2.49-.22-4.98-.45-7.67-.69.33-2.92.64-5.74.96-8.56-.06-.2.12-.33.14-.5l.07-1.07c-.39-.8-.16-1.51.31-2.18.12-.77.21-1.54.37-2.29.41-1.93,2.04-3.04,3.89-2.58,1.97.49,3.63-.16,5.22-1.22,2.71,2.46,5.54,4.88,6.22,8.73.21,1.17-.02,2.48-.3,3.66-.61,2.52-1.38,5.01-2.09,7.51Z"/>
  <path class="cls-28" d="M320,133.66c-.49.17-.99.33-1.47.52-2.42.95-4.56.11-5.7-2.24-.23-.47-.51-.92-.77-1.38-1.26-2.88.42-7.58,3.24-9.07,2.02-1.44,4.13-2.63,6.54-.95,1.85,1.29,2.21,3.3,2.15,5.41.85,2.5-.22,4.86-2.9,6.37-.19.31-.37.63-.56.94-.25.05-.43.2-.57.4,0,0,.04-.02.04-.02Z"/>
  <path class="cls-13" d="M289.74,111.72c1.62-3.3,5.96-5.56,9.87-5.12.52,4.81,4.32,7.14,7.56,9.89-.33.76-.94.58-1.52.45-2.38-.53-4.76-1.01-7.06-1.86-2.45-.92-5.14-.98-7.55-2.08-.63-.28-1.22-.48-1.31-1.27Z"/>
  <path class="cls-28" d="M309.15,130.34c-1.2,0-2.4.01-3.6.02-.51-.24-.67-.64-.55-1.18,1.89-2.7,2.03-5.98,2.94-9,.28-.92-.46-1.67-.62-2.53.27-.46.63-.29.99-.16.9.58,1.8,1.16,2.7,1.74.29.31-.06.85.39,1.1h-.02c.06.18.18.3.36.36v-.02c.13.21.29.42.24.66-.66,3.1-.85,6.34-2.84,9.02Z"/>
  <path class="cls-15" d="M309.15,130.34c-.12-.13-.37-.35-.36-.36,2.14-2.74,2.01-6.2,2.96-9.31,1.18.28,2.36.57,3.54.85-2.63,2.47-3.38,5.61-3.24,9.07-.97-.08-1.94-.16-2.91-.24Z"/>
  <path class="cls-15" d="M321.09,132.34c1.91-1.69,2.99-3.76,2.9-6.37,2.35,1.24,2.45,1.49,1.68,4.02-.07.23-.16.44-.23.67-.26.83-.52,1.67-.78,2.5-.79-.29-1.56-.62-2.37-.84-.37-.1-.8,0-1.2.02Z"/>
  <path class="cls-25" d="M308.3,117.48c-.28.1-.55.2-.83.29-.67.5-1.4.25-2.05.05-4.81-1.53-9.75-2.58-14.58-4.03-.55-.16-1.4-.04-1.44-1,0-.21,0-.42,0-.63.11-.15.22-.3.32-.44,1.8.7,3.57,1.49,5.4,2.07,2.32.73,4.68,1.34,7.05,1.88,1.64.37,3.32.55,4.98.82.38.33.76.66,1.14.99Z"/>
  <path class="cls-15" d="M311.4,120.32c-.13-.36-.26-.73-.39-1.09.13.36.26.73.39,1.09Z"/>
  <path class="cls-13" d="M319.96,133.68c.19-.13.38-.27.57-.4-.19.13-.38.27-.57.4Z"/>
  <path class="cls-15" d="M311.74,120.68c-.12-.12-.24-.24-.36-.37.12.12.24.24.36.37Z"/>
  <path class="cls-9" d="M288.33,154.82c-1.79.25-3.59.5-5.38.76.24-.8.79-1.66.66-2.41-.86-5.02-.11-9.71,2.55-14.08,2.13,3.44,5.54,4.64,9.43,5.2-.92,3.09-1.74,6-2.69,8.88-.13.41-.83.73-1.33.89-1.06.33-2.16.52-3.24.77Z"/>
  <path class="cls-25" d="M305.17,129.31c.13.35.25.69.38,1.04-2.53-.58-5.05-1.19-7.58-1.73-1.83-.39-3.69-.66-5.52-1.05-.43-.09-.76-.63-1.19-.74-1.95-.51-3.93-.95-5.89-1.41-.39-.3-.78-.61-1.17-.91.02-.22.14-.36.35-.42,3.06-.06,5.83,1.24,8.71,1.97,3.71.93,7.37,2.1,11.13,2.85.3.06.57.17.78.41Z"/>
  <path class="cls-25" d="M283.1,123.26c.18-.01.35-.02.53-.04.83-.09,1.04.31.8,1.04-.08.08-.16.16-.24.24-.36-.41-.73-.83-1.09-1.24Z"/>
  <path class="cls-25" d="M185.62,40.2c4.29,3.31,8.62,6.59,12.88,9.95,5.62,4.43,11.19,8.91,16.78,13.37.79.63,1.56,1.29,2.57,2.12-.65.06-1.06.14-1.48.14-6.82,0-13.63-.03-20.45.04-1.22.01-1.88-.36-2.27-1.48-2.34-6.82-4.71-13.63-7.05-20.45-.4-1.18-.72-2.38-1.08-3.58l.11-.11Z"/>
  <path class="cls-25" d="M173.03,71.85c3.59-10.35,7.18-20.69,10.77-31.04l.38.03c.34,2.15.72,4.29,1.02,6.44.82,5.71,1.65,11.42,2.36,17.15.09.76-.35,1.63-.7,2.38-.32.66-.86,1.22-1.3,1.82,0,0,0,0,0,0-1.26.86-2.53,1.73-3.79,2.59-.52.35-1.04.69-1.56,1.03-2.42.26-4.85.71-7.19-.4Z"/>
  <path class="cls-5" d="M179.81,79.79c4.24-1.36,8.49-2.67,12.7-4.1,1.15-.39,1.73-.08,2.33.88,1.19,1.89,2.49,3.71,4.08,6.06h-19.1c-.67-.94-.67-1.89,0-2.83Z"/>
  <path class="cls-25" d="M216.2,66.88c-6.41,2.12-12.82,4.25-19.4,6.43-.76-2.22-1.49-4.34-2.28-6.66h21.63c.02.08.04.16.05.23Z"/>
  <path class="cls-25" d="M216.53,67.96c-2.56,2.27-5.13,4.52-7.66,6.82-.67.61-1.17,1.39-1.75,2.09,0,0,0,0,0,0-.35,0-.71,0-1.06,0-2.88-.5-5.86-.54-8.57-1.82.06-.43.01-1.19.2-1.25,6.05-2.02,12.12-3.97,18.19-5.93.17-.05.36-.02.54-.03,0,0,.13.12.13.12Z"/>
  <path class="cls-25" d="M193.45,65.78c-1.69,0-2.94.09-4.16-.06-.36-.04-.83-.75-.91-1.21-.49-2.69-.9-5.4-1.29-8.11-.52-3.65-1.01-7.31-1.5-10.97-.04-.29,0-.59.39-1,2.45,7,4.9,14,7.47,21.35Z"/>
  <path class="cls-5" d="M192.82,73.63c-.08.36-.07.97-.25,1.03-4.23,1.39-8.47,2.71-12.72,4.05-.95-1.38-.5-2.89-.4-4.36.83-.72,1.67-1.43,2.5-2.15,3.68.07,7.27.74,10.87,1.43Z"/>
  <path class="cls-25" d="M192.82,73.63c-.44.12-.9.39-1.31.33-2.99-.43-5.97-.92-8.95-1.42-.21-.04-.4-.22-.6-.34,1.21-1.19,2.42-2.39,3.63-3.58,0,0,0,0,0,0,.17-.04.37-.03.51-.12,2.24-1.52,2.21-1.5,3.74.66.67.95,1.48,1.8,2.22,2.7h0c.26.58.52,1.18.78,1.77Z"/>
  <path class="cls-22" d="M173.03,71.85c2.4.13,4.79.27,7.19.4-3.19,2.92-6.38,5.84-9.57,8.76-.22-.14-.43-.27-.65-.41,1.01-2.92,2.02-5.83,3.03-8.75Z"/>
  <path class="cls-5" d="M197.49,75.05c2.86.61,5.71,1.21,8.57,1.82-1.85,1.7-3.7,3.4-5.95,5.47-.96-2.67-1.79-4.98-2.62-7.29Z"/>
  <path class="cls-25" d="M192.04,71.86c-.61-1.12-1.2-2.25-1.82-3.36-.31-.55-.7-1.07-1.32-2,1.64,0,2.9-.01,4.16.01.21,0,.56.1.61.24.78,2.11,1.54,4.22,2.23,6.36.05.16-.49.71-.79.74-.44.04-1-.1-1.36-.37-.63-.46-1.15-1.08-1.72-1.63,0,0,0,0,0,0Z"/>
  <path class="cls-22" d="M179.45,74.35c.13,1.45.27,2.91.4,4.36-2.76.95-5.52,1.91-8.28,2.86l-.04-.05c1.13-1.16,2.2-2.39,3.41-3.47,1.44-1.3,3-2.48,4.51-3.7Z"/>
  <path class="cls-22" d="M179.81,79.79c0,.94,0,1.89,0,2.83-2.61,0-5.22,0-7.83,0-.02-.08-.05-.17-.07-.25,2.63-.86,5.26-1.72,7.9-2.58Z"/>
  <path class="cls-5" d="M197.36,78.6c-.69-.92-1.44-1.81-2.03-2.79-.18-.3.09-.87.16-1.31.43.23,1.09.36,1.24.72.43,1.01.66,2.11.97,3.17-.11.07-.22.15-.33.22Z"/>
  <path class="cls-25" d="M177.73,55.73c-.89-1.98-.61-2.74,1.06-2.89-.35.96-.71,1.93-1.06,2.89Z"/>
  <path class="cls-25" d="M185.44,42.94c.03.23.05.38.07.54-.08-.06-.22-.11-.24-.18-.02-.08.08-.18.17-.35Z"/>
  <path class="cls-22" d="M171.57,81.58c-.14.08-.27.17-.42.24,0,0-.06-.08-.1-.13.16-.05.31-.1.47-.16,0,0,.04.05.04.05Z"/>
  <path class="cls-5" d="M198.06,79.46s-.12.05-.13.03c-.03-.04-.04-.1-.05-.15.04-.01.12-.05.13-.03.03.04.04.1.05.15Z"/>
  <path class="cls-25" d="M216.41,67.84c.08-.04.17-.08.25-.12-.04.08-.08.16-.12.24,0,0-.12-.12-.12-.12Z"/>
  <path class="cls-25" d="M185.51,40.31c-.04-.08-.07-.15-.11-.23.07.04.15.08.22.12,0,0-.11.11-.11.11Z"/>
  <path class="cls-29" d="M362,61.44s.06-.1.09-.15c-.03.05-.06.1-.08.15,0,0,0,0,0,0Z"/>
  <path class="cls-5" d="M284.43,124.26c-.27-.35-.53-.69-.8-1.04.67-3.12,1.18-6.28,2.06-9.34.54-1.88,2.38-1,3.71-1.09,3.85,1.08,7.7,2.17,11.56,3.24,2.17.6,4.34,1.16,6.51,1.74,1.43.7,1.15,1.97.9,3.1-.49,2.2-1.05,4.39-1.74,6.53-.23.72-.96,1.28-1.46,1.91-2.9-.62-5.81-1.16-8.68-1.87-4.03-1-8.04-2.12-12.05-3.18Z"/>
  <path class="cls-14" d="M246.17,199.36c-.32-.71-.64-1.42-.96-2.12.76-.59,1.44-1.37,2.3-1.75,3.2-1.43,6.59-2.22,10.09-2.59,2.57-.27,4.51-2.8,4.47-6.17-.05-3.39.27-6.71,1.9-9.67,1.28-2.32,3.03-4.38,4.58-6.55.24.12.47.24.71.35-.21.91-.34,1.85-.66,2.73-2.01,5.62-2.85,11.43-2.48,17.36.19,3.06.91,6.09,1.38,9.13-2.74.42-5.46.88-8.21,1.24-2.81.37-5.65.54-8.45.97-2.51.39-3.91-.69-4.67-2.94Z"/>
  <path class="cls-14" d="M267.84,200.11c.17.05.46.07.49.16.9,3.35,3.65,4.81,6.4,6.22,1.03.53,1.18.78.45,1.79-1.49,2.05-2.76,4.25-4.1,6.41-.21.33-.29.77-.34,1.17-.62,4.87-1.23,9.75-1.84,14.62-.01.12-.03.24-.09.34-.78,1.4-.99,2.79.02,4.17-1.19-.83-2.38-1.69-3.59-2.5-1.11-.75-2.25-1.44-3.38-2.16.75-.41,1.43-.89,2.02-1.51,1.79-3.19,3.05-6.53,3.36-10.24.3-3.64,1.04-7.25,1.25-10.89.13-2.22-.4-4.47-.63-6.71-.03-.3-.02-.59-.02-.89Z"/>
  <path class="cls-29" d="M226.36,223.47c-2.56,1.39-5.13,2.79-7.69,4.18-1.81-1-3.59-2.04-5.42-2.98-1.64-.84-3.34-1.55-5.02-2.33.98-.1,1.97-.36,2.94-.28,5.07.42,10.13.92,15.2,1.4Z"/>
  <path class="cls-16" d="M135.26,219.09c-.35.15-.69.3-1.04.44-.32.12-.46-.07-.56-.33-.01-.87.74-1.29,1.12-1.92.29-.49.88-1,.44-1.57-.52-.67-1.18-.14-1.75.08-.64.25-1.17.82-1.95.64-.07-.05-.13-.1-.2-.16.73-.62,1.41-1.3,2.2-1.82.58-.38,1.33-.48,1.95-.82,1.87-1,2.02-.91,2.46,1.18.16.76.62,1.45.94,2.18-.07.05-.13.1-.2.15-.58.2-.94-.5-1.57-.35-.7.65-.9,1.77-1.83,2.3Z"/>
  <path class="cls-16" d="M125.21,219.86c.27-.11.76-.2.77-.34.25-3.05,3.07-1.96,4.62-2.9.03.08.06.15.09.23-.32,1.1-1.59,1.64-1.69,2.88-.15.23-.37.38-.63.48-.91.18-1.79.57-2.75.31-.27-.13-.49-.3-.41-.65Z"/>
  <path class="cls-30" d="M263.88,228.84c-.2,1.14-.81,1.73-2.03,1.51-.76-.61-1.53-1.22-2.29-1.83,1.44.11,2.88.21,4.32.32Z"/>
  <path class="cls-22" d="M125.21,219.86c.17.17.34.34.5.51.09.8-.32,1.12-1.07,1.13-.18-.05-.28-.18-.28-.37.05-.3.09-.61.14-.91.24-.12.47-.24.71-.36Z"/>
  <path class="cls-16" d="M140.28,218.83c-.23-.07-.45-.13-.68-.2-.24-.19-.27-.44-.19-.72.06-.07.11-.14.17-.21.23.38.47.75.7,1.13Z"/>
  <path class="cls-16" d="M138.86,216.99c.24.24.48.48.72.72,0,0,0,0,0,0-.75.27-.99.03-.72-.72h0Z"/>
  <path class="cls-16" d="M130.59,216.62c.24-.12.48-.23.72-.35h0c0,.6-.3.59-.71.37v-.02Z"/>
  <path class="cls-5" d="M138.86,216.99c.24.24.48.48.72.72,0,.31.02.62.03.92-1.45.15-2.9.3-4.35.45.57-1.07,1.13-2.13,1.71-3.23.74.45,1.32.79,1.89,1.13Z"/>
  <path class="cls-22" d="M154.51,235.45c-2.14-2.51-4.29-5.02-6.43-7.53-.07-.2,0-.28.2-.22,2.15,2.52,4.31,5.03,6.46,7.55.05.21-.03.28-.23.21Z"/>
  <path class="cls-5" d="M144.96,250.74c-.07.26-.14.52-.21.77.01.14-.01.27-.08.39-.43,1.49-1.71.64-2.57.93-.24-.2-.34-.46-.39-.75-.07-.81.08-1.56.72-2.14.89-.48,1.71-.22,2.49.28.16.16.18.33.05.51Z"/>
  <path class="cls-22" d="M133.86,225.94c2.04,2.39,4.08,4.78,6.12,7.17-.06.06-.13.12-.19.18-.7.18-1.15-.26-1.52-.7-1.42-1.66-2.87-3.31-4.26-5-.35-.43-.59-.89-.34-1.47.06-.06.13-.12.19-.18Z"/>
  <path class="cls-22" d="M131.81,222.16c-.01.51-.03,1.02-.04,1.54-.05.16-.16.28-.31.35-1.25.32-2.09,1.26-3.06,2-.52.4-.94,1.15-1.8.62-.33-1.44.88-1.95,1.7-2.61.79-.63,1.34-1.31,1.46-2.31.62-.6,1.19.03,1.78.07.17.05.25.17.26.34Z"/>
  <path class="cls-16" d="M154.32,237.13c.24-.37.47-.74.71-1.1.13-.14.27-.16.43-.06.62.22,1.24.45,1.85.67-.4.77-.8,1.55-1.2,2.32-.24-.03-.45-.14-.65-.28-.45-.33-.9-.67-1.23-1.13-.07-.16-.05-.3.08-.43Z"/>
  <path class="cls-16" d="M136.7,255.41c-.62.14-1.67.56-1.79.37-.39-.6-.44-1.42-.62-2.16.01-.28.16-.46.4-.58.33-.13.66-.14,1-.08.17.04.33.11.48.2.51.39.86.88.87,1.55-.02.28-.14.5-.34.7Z"/>
  <path class="cls-16" d="M146.07,240.33c.11.03.22.07.33.12.13.05.26.04.38-.04.46.08.92.15,1.38.23.26.17.37.43.42.72.03,1.15-.37,1.89-1.69,1.78-.39-.09-.72-.28-1.01-.56-.48-.67-.75-1.37-.32-2.18.15-.16.33-.18.51-.06Z"/>
  <path class="cls-16" d="M116.86,233.22c-.67-.25-1.33-.51-2-.76.33-.63.65-1.26.98-1.89.31,0,.61.04.89.16.37.16.65.43.85.78.15.29.26.59.23.93-.08.33-.22.62-.49.83-.16.06-.31.04-.46-.05Z"/>
  <path class="cls-22" d="M148.3,241.16c-.05-.18-.1-.35-.15-.53,2.06-1.16,4.12-2.33,6.17-3.5,0,.13,0,.26,0,.39-.65,1.55-2.4,1.59-3.51,2.53-.68.57-1.4,1.37-2.5,1.11Z"/>
  <path class="cls-17" d="M136.7,255.41l.04-.73c1.78-.85,3.28-2.31,5.38-2.46,0,.2,0,.4-.01.6-1.8.86-3.6,1.72-5.4,2.58Z"/>
  <path class="cls-22" d="M116.81,229.07c1.2-1.43,2.4-2.86,3.6-4.29.17.06.28.18.32.36-.69,1.81-2.13,2.98-3.54,4.19-.19,0-.32-.08-.38-.25Z"/>
  <path class="cls-22" d="M122.18,239.38c-1.17-1.34-2.33-2.68-3.5-4.01.06-.06.12-.12.18-.19,2.08.48,2.83,2.22,3.67,3.87-.05.18-.16.29-.35.33Z"/>
  <path class="cls-22" d="M133.84,219.14c.13.13.25.26.38.39-.8.88-1.61,1.75-2.41,2.63-.08-.08-.16-.16-.24-.23-.29-1.31,1.21-1.65,1.44-2.67.24-.28.5-.42.83-.12Z"/>
  <path class="cls-18" d="M149.4,246.96c-.95.84-1.89,1.68-2.84,2.52-.19-.04-.29-.16-.29-.35.61-1.2,1.36-2.24,2.81-2.52.18.05.29.17.32.36Z"/>
  <path class="cls-22" d="M133.08,252.23l-2.25-2.76c.05-.18.17-.27.36-.27,1.1.66,2.32,1.23,2.08,2.86-.06.06-.13.12-.19.17Z"/>
  <path class="cls-22" d="M124.46,242.17c-.76-.93-1.51-1.86-2.27-2.79.07-.05.14-.11.21-.17,1.38.41,2.38,1.13,2.26,2.77-.06.06-.13.12-.19.19Z"/>
  <path class="cls-22" d="M139.98,233.11c.71.84,1.43,1.69,2.14,2.53-.07.06-.14.11-.21.17-1.42-.23-2.28-.94-2.14-2.5.07-.07.14-.13.21-.2Z"/>
  <path class="cls-22" d="M126.48,244.42c-.67-.75-1.35-1.5-2.02-2.25.06-.06.11-.11.17-.17,1.36.06,1.99.88,2.22,2.12-.06.18-.17.28-.37.3Z"/>
  <path class="cls-22" d="M146.07,240.33c-.12,0-.25,0-.37.01-1.26-.04-1.79-.83-2.01-1.94.05-.18.17-.29.35-.32.68.75,1.35,1.5,2.03,2.25Z"/>
  <path class="cls-22" d="M145.09,224.05c.57.63,1.14,1.26,1.71,1.89-.05.04-.11.08-.16.12l-1.74-1.83.03-.15.15-.03Z"/>
  <path class="cls-22" d="M131.77,223.7c.58.62,1.17,1.24,1.75,1.86-.07.06-.14.12-.21.19-1.17-.1-1.93-.56-1.66-1.91.04-.04.08-.09.12-.14Z"/>
  <path class="cls-18" d="M155.81,238.52c.1.15.21.3.31.45-.43.74-.86,1.48-1.28,2.23-.19-.01-.31-.1-.37-.29.05-1.02.57-1.77,1.34-2.39Z"/>
  <path class="cls-22" d="M128.65,246.92c-.57-.62-1.13-1.24-1.7-1.87.06-.06.12-.12.19-.18,1.19-.03,1.71.65,1.87,1.73-.05.18-.17.28-.35.32Z"/>
  <path class="cls-22" d="M130.82,249.47c-.58-.63-1.15-1.25-1.73-1.88.07-.06.13-.13.2-.19,1.2.06,1.89.58,1.73,1.88-.07.06-.14.13-.2.2Z"/>
  <path class="cls-22" d="M122.59,222.62c.59-.49,1.18-.99,1.77-1.49.06.07.12.15.18.22-.06,1-.68,1.45-1.6,1.58-.17-.04-.28-.15-.34-.32Z"/>
  <path class="cls-22" d="M142.59,236.28c.48.6.96,1.2,1.44,1.8-.06.05-.13.09-.19.15-1.03-.05-1.49-.67-1.6-1.62.05-.17.16-.28.34-.32Z"/>
  <path class="cls-18" d="M154.84,241.19c-.49.59-.98,1.19-1.48,1.78-.17-.04-.29-.15-.33-.32.09-.95.59-1.53,1.56-1.66.08.07.16.13.25.2Z"/>
  <path class="cls-22" d="M116.63,230.97c-.26-.13-.52-.26-.79-.39.32-.5.65-1,.97-1.5.06.07.13.13.2.19.31.67.07,1.21-.39,1.7Z"/>
  <path class="cls-18" d="M144.96,250.74c0-.14,0-.29,0-.43.05-.86.47-1.26,1.35-1.1.08.09.16.17.25.26-.53.42-1.07.84-1.6,1.26Z"/>
  <path class="cls-22" d="M144.14,223.21c-.37-.28-.73-.56-1.1-.85.09-.11.18-.22.27-.33.33.34.67.67,1,1.01-.06.06-.12.12-.18.18Z"/>
  <path class="cls-22" d="M147.29,226.56c.33.38.66.76.99,1.14-.07.07-.14.14-.2.22-.34-.39-.68-.77-1.02-1.16-.02-.18.05-.25.23-.19Z"/>
  <path class="cls-22" d="M134.55,253.44c-.06.11-.14.17-.26.19-.29-.34-.58-.67-.88-1.01.08-.06.15-.13.23-.19.67.01,1.2.14.91,1.01Z"/>
  <path class="cls-22" d="M116.86,233.22c.13-.02.25-.04.38-.07.77-.24.92.25.98.83-.04.19-.16.3-.34.35-.34-.37-.68-.75-1.02-1.12Z"/>
  <path class="cls-22" d="M118.68,235.37c-.27-.34-.53-.68-.8-1.02.07-.06.14-.11.21-.17.64.03.88.37.8.98-.07.07-.14.14-.21.21Z"/>
  <path class="cls-22" d="M121.13,224.04l.73-.68c.16.05.26.16.3.32,0,.5-.27.72-.76.69-.17-.05-.26-.16-.27-.33Z"/>
  <path class="cls-18" d="M150.8,245.81c-.25.23-.49.47-.74.7-.06-.05-.12-.1-.18-.15-.13-.49.06-.76.56-.81.16.03.28.12.36.27Z"/>
  <path class="cls-22" d="M155.47,235.97c-.14.02-.29.04-.43.06-.18-.19-.35-.39-.53-.58.08-.07.15-.13.23-.2.24.24.48.48.73.73Z"/>
  <path class="cls-18" d="M151.51,245.09c-.24.24-.48.48-.72.72-.09-.09-.18-.18-.26-.27-.03-.46.2-.7.66-.72.15.03.26.12.32.27Z"/>
  <path class="cls-22" d="M121.86,223.36c.24-.24.49-.49.73-.73.05.06.1.11.15.17.19.67-.05.91-.72.72-.05-.05-.11-.11-.17-.16Z"/>
  <path class="cls-18" d="M152.58,244c-.24.24-.48.48-.72.72-.06-.05-.12-.1-.19-.14-.14-.48.04-.76.54-.82.16.02.29.11.37.25Z"/>
  <path class="cls-22" d="M129.1,247.58c-.15-.22-.3-.44-.44-.66.07-.05.14-.11.21-.16.41-.01.5.25.48.59-.08.08-.16.16-.25.24Z"/>
  <path class="cls-22" d="M147.06,226.75c-.14-.23-.27-.46-.41-.69.05-.04.11-.08.16-.12.16.21.32.41.49.62-.08.06-.15.13-.23.19Z"/>
  <path class="cls-22" d="M142.12,235.64c.16.21.31.42.47.64-.07.05-.14.11-.21.17-.41-.03-.5-.28-.44-.63.06-.06.12-.12.18-.18Z"/>
  <path class="cls-18" d="M153.01,243.34c-.14.22-.28.43-.42.65-.09-.08-.18-.17-.26-.25-.02-.35.12-.59.47-.67.19,0,.26.09.21.27Z"/>
  <path class="cls-18" d="M150.06,246.51c-.22.15-.44.3-.65.45-.06-.08-.12-.16-.19-.23.04-.38.28-.48.62-.45.08.08.15.16.22.24Z"/>
  <path class="cls-22" d="M126.95,245.06c-.16-.21-.31-.43-.47-.64.07-.06.15-.12.22-.18.41,0,.5.26.48.6-.08.07-.15.15-.23.22Z"/>
  <path class="cls-22" d="M120.41,224.78c.12-.13.23-.25.35-.38.18.03.26.13.23.31-.08.14-.21.23-.37.26-.07-.06-.14-.12-.21-.19Z"/>
  <path class="cls-22" d="M133.52,225.56c.11.13.23.25.34.38-.07.06-.15.13-.22.19-.14-.08-.25-.19-.32-.33.07-.08.14-.16.2-.23Z"/>
  <path class="cls-18" d="M153.36,242.97c-.12.12-.24.25-.36.37-.07-.07-.14-.14-.21-.21,0-.23.12-.35.35-.37.07.07.15.13.22.2Z"/>
  <path class="cls-18" d="M151.86,244.71c-.12.13-.23.25-.35.38-.08-.09-.17-.19-.25-.28.08-.14.2-.25.35-.32.08.07.16.15.24.22Z"/>
  <path class="cls-22" d="M146.77,240.4c-.13.01-.25.03-.38.04.13-.01.25-.03.38-.04Z"/>
  <path class="cls-18" d="M144.67,251.9c.03-.13.05-.26.08-.39-.03.13-.05.26-.08.39Z"/>
  <path class="cls-22" d="M120.76,224.4c.12-.12.25-.24.37-.36.06.07.12.13.19.2,0,.24-.11.36-.35.36-.07-.07-.13-.13-.2-.2Z"/>
  <path class="cls-22" d="M133.41,252.62c-.11-.13-.22-.26-.33-.39.07-.06.13-.12.2-.18.15.07.27.17.35.32-.07.08-.14.16-.22.24Z"/>
  <path class="cls-22" d="M144.31,223.04c.03.13.06.27.09.4-.09-.08-.18-.15-.27-.22.06-.06.12-.12.18-.17Z"/>
  <path class="cls-22" d="M144.9,224.24c-.03-.13-.06-.26-.08-.4.09.07.18.14.27.21-.06.06-.12.12-.18.18Z"/>
  <path class="cls-1" d="M455.42,160.96c.02,3.57.02,3.6-3.67,3.56-2.14-.03-4.27-.19-6.41-.3-1.65.22-2.22-.48-2.14-2.14.12-2.39.08-4.79,0-7.18-.03-1.04.29-1.61,1.34-1.63,3.28-.07,6.57-.16,9.85-.1.35,0,.94.97.97,1.51.12,2.09.05,4.19.05,6.28Z"/>
  <path class="cls-7" d="M464.37,157.62c5.43.03,10.86.02,16.29.12.68.01,1.88.51,1.92.89.14,1.2-.88,1.26-1.85,1.26-7.34-.03-14.68-.05-22.02-.06-.32-1.59.18-2.33,1.93-2.16,1.23.12,2.49-.02,3.73-.05Z"/>
  <path class="cls-7" d="M470.8,153.49c.2,1.47-.48,2.11-1.92,2.07-.65-.02-1.31,0-1.96,0-2.21,0-4.41-.03-6.62-.02-.93,0-1.85-.17-1.57-1.31.12-.49,1.03-1.11,1.58-1.11,3.5.03,7,.22,10.49.36Z"/>
  <path class="cls-20" d="M420.21,95.96c.13-.01.25-.03.38-.04,1.23,1.1,2.05,2.56,3.54,3.43,3.16,1.85,6.22,3.48,10.17,3.03,2.99-.35,6.03.39,9.03.91,1.45.26,3.01.12,4.2,1.24.47.37.95.74,1.42,1.1,0,0,0,0,0,0,.11.21.2.44.33.63q1.75,2.54-.25,4.83c-.39.45-.83.86-1.22,1.32q-2.02,2.39-4.31.18c-.77-.74-1.57-1.46-2.38-2.17-.1-.09-.33-.04-.81-.09.63,6.92,1.25,13.75,1.88,20.69-.68.07-1.14.15-1.6.16-6.77.01-13.53-.03-20.3.06-1.64.02-2.09-.49-1.92-2.06.61-5.63,1.14-11.28,1.69-16.92.06-.62,0-1.24-.42-2.15-1,.96-2,1.91-2.99,2.87-1.74,1.69-2,1.68-3.55-.05-1-1.11-2.09-2.14-3.02-3.31-.31-.39-.52-1.33-.28-1.61,3.26-3.87,6.6-7.66,9.92-11.48.36-.04.27-.44.48-.6Z"/>
  <path class="cls-13" d="M447.53,104.53c-3.57-.53-7.15-1.07-10.73-1.57-.93-.13-1.93-.34-2.82-.16-4.05.81-7.12-1.29-10.31-3.2-1.48-.89-2.53-2.05-3.08-3.67.71-.09,1.41-.2,2.12-.27,1.82-.17,3.46-.31,4.22,2.07.57,1.78,2.36,2.03,4.04,1.79,1.41-.2,2.54-.76,2.84-2.45.08-.46.94-1.1,1.47-1.13,1.9-.1,3.81.03,5.71.07.97,1.17,1.95,2.35,2.92,3.52,1.02,1.31,2.06,2.6,3.06,3.92.24.32.37.71.55,1.07Z"/>
  <path class="cls-27" d="M448.95,105.63c.15-.18.29-.37.44-.55.04.04.08.08.12.12-.18.15-.37.29-.55.44,0,0,0,0,0,0Z"/>
  <path class="cls-13" d="M420.21,95.96c-.16.2-.32.4-.48.6.16-.2.32-.4.48-.6Z"/>
  <path class="cls-17" d="M142.69,94.24c.16,1.45.32,2.91.5,4.59-1.42,0-2.65,0-3.89,0-4.94,0-9.89,0-14.83,0q-2.59,0-2.96-2.52c-.08-.14-.05-.26.07-.37,3.22-.38,6.44-.8,9.67-1.13,3.7-.39,7.4-.71,11.11-1.06.11.16.22.33.32.49Z"/>
  <path class="cls-30" d="M121.59,95.95c-.02.12-.05.24-.07.37-1.9.35-3.8.7-5.7,1.04.9-5.55,1.8-11.1,2.7-16.64.12,0,.24.01.35.02.91,5.07,1.81,10.15,2.72,15.22Z"/>
  <path class="cls-16" d="M101.85,63.63c-.54.29-1.08.57-1.62.86-.04-1.39.57-1.54,1.62-.86Z"/>
  <path class="cls-10" d="M269.48,236.77c1.12.9,2.05,1.64,3.06,2.46-2.39.8-3.26.13-3.06-2.46Z"/>
  <path class="cls-10" d="M282.26,246.06c.13.44.27.88.4,1.31-.72.31-1.43.61-2.14.91.3-1.07.1-2.47,1.75-2.22,0,0,0,0,0,0Z"/>
  <path class="cls-10" d="M292.16,255.38c.32.28.64.56,1.05.92-.46.33-.67.52-.71.49-.36-.25-.69-.55-1.03-.83.23-.19.46-.39.69-.58Z"/>
  <path class="cls-10" d="M290.14,253.99c.36.33.72.67,1.08,1-.16.12-.32.24-.48.35-.2-.45-.4-.9-.6-1.35h0Z"/>
  <path class="cls-10" d="M290.14,253.99c-.18-.14-.37-.29-.55-.43.04-.04.08-.08.12-.12.14.18.29.36.43.55h0Z"/>
  <path class="cls-10" d="M295.89,259.02c.05.03.1.06.15.08-.05-.03-.1-.05-.15-.08h0Z"/>
  <path class="cls-16" d="M387.92,257.17c2.6.15,4.36,1.83,5.5,3.8,1.93,3.33,3.44,6.91,5.08,10.4.21.46.15,1.05.21,1.58-2.06,1.18-4.25,1.99-6.59,2.45-4.64.91-9.29,1.74-14.04,1.71-3.83-.02-6.69-1.54-8.13-5.28-.27-.69-.4-1.37-.45-2.08.52-3.09.83-6.25,2.9-8.81.49-.61,1.25-1.01,1.88-1.5.94.05.95.71.93,1.4-.01.59.12,1.16.83,1.09.82-.07.85-.7.66-1.34-.23-.79-.65-1.59.27-2.24,2.99-.66,5.96-1.46,9.07-1.13,1.03.34,1.01,1.16.94,2.02-.03.42.04.84.43,1.09.21.14.47.1.65-.07.41-.37.35-.83.21-1.31-.17-.59-.8-1.08-.36-1.79Z"/>
  <path class="cls-5" d="M369.5,269.75c.5,1.04,1,2.09,1.51,3.13,1.39,2.82,3.94,3.91,6.79,3.67,4.94-.42,9.87-1.17,14.77-1.95,2.08-.33,4.09-1.09,6.14-1.65,0,0,0,.05,0,.05.08.14.18.27.29.39.07,3.03-.43,3.87-3.44,4.41-4.57.81-9.18,1.41-13.78,2.04-3.01.41-6.02.86-9.04,1.06-2.58.17-3.95-1.17-3.88-3.74.07-2.48.42-4.94.65-7.41Z"/>
  <path class="cls-22" d="M376.73,258.67c.17.61.42,1.21.48,1.83.05.53.05,1.26-.25,1.58-.31.32-1.15.48-1.54.29-.38-.19-.5-.92-.69-1.43-.18-.49-.3-1-.45-1.5.26-.25.51-.51.77-.76.18-.48-.06-1.02.21-1.48.39-2.28.6-4.61,1.21-6.83.49-1.76,1.61-3.24,3.66-3.54,2.09-.31,3.56.87,4.4,2.48,1.31,2.52,2.28,5.23,3.39,7.85.3.57.75,1.11.86,1.72.1.57-.05,1.26-.32,1.77-.13.25-1.03.44-1.17.28-.39-.43-.66-1.04-.82-1.62-.15-.58-.1-1.22-.14-1.83-.93-1.08-1.07-2.49-1.57-3.75-.53-1.34-1.13-2.63-2.09-3.71-1.57-1.76-3.13-1.59-4.22.53-.96,1.88-1.22,3.96-1.39,6.04-.17.54-.26,1.08-.15,1.64,0,.16-.07.3-.19.42Z"/>
  <path class="cls-16" d="M375.26,257.19c-.07.49-.14.99-.21,1.48.07-.49.14-.99.21-1.48Z"/>
  <path class="cls-16" d="M398.99,273.39c-.1-.13-.19-.26-.29-.39.1.13.19.26.29.39Z"/>
  <path class="cls-23" d="M239.83,178.95c.21-.36.42-.73.63-1.09.22.81.52,1.6.65,2.43.55,3.48,1.04,6.97,1.56,10.45-.22-.29-.58-.55-.64-.87-.57-3.3-1.91-6.48-1.55-9.94.03-.3-.42-.65-.65-.98Z"/>
  <path class="cls-5" d="M359.49,222.02c1.54,0,2.96,0,4.39,0,1.11,0,1.76.42,1.74,1.7-.08,4.69.46,3.92-3.94,4.07-1.74.06-2.38-.54-2.21-2.25.11-1.11.02-2.23.02-3.53Z"/>
  <path class="cls-20" d="M309.81,141.17c-.1.73-.21,1.46-.31,2.18-.58.87-1.16,1.74-1.65,2.46-.36-.12-.96-.5-1.54-.46-3.12.22-6.24.58-9.36.81-.33.02-.69-.55-1.04-.85.35-.29.69-.83,1.05-.84,3.29-.09,6.26-1.29,9.13-2.71.85-.42,1.42-1.41,2.15-2.11.26-.25.61-.42,1.05-.72.21.9.37,1.57.53,2.24Z"/>
  <path class="cls-20" d="M288.54,132.86c3.46.94,6.92,1.88,10.38,2.82-.53,2.18-2.99,3.68-5.26,3.17-4.01-.9-5.75-2.97-5.12-5.98Z"/>
  <path class="cls-20" d="M309.42,144.43c-.05.17-.09.33-.14.5.05-.17.09-.33.14-.5Z"/>
  <path class="cls-21" d="M315.17,129.02c.77-1.62,1.29-3,2.05-4.23.83-1.32,2.14-1.98,3.71-1.41,1.5.55,2.01,1.91,1.87,3.33-.19,1.91-.68,3.86-2.65,4.74-.89.4-2.22.72-2.94.33-.88-.47-1.33-1.73-2.04-2.77Z"/>
  <path class="cls-6" d="M305.48,119.95c-.61,2.4-.96,4.42-1.68,6.28-.22.57-1.58,1.2-2.23,1.04-5.08-1.24-10.13-2.63-15.16-4.09-.44-.13-.98-1.12-.89-1.61.36-2.1.82-4.22,1.53-6.22.19-.53,1.53-1.08,2.18-.93,4.97,1.18,9.92,2.48,14.83,3.89.63.18,1.04,1.17,1.43,1.64Z"/>
  <path class="cls-5" d="M133.84,219.14c-.24.06-.49.13-.73.19-.71,1.03-1.8.6-2.75.7-.55-.07-1.13-.06-1.55-.52.6-.96,1.19-1.92,1.79-2.88.24-.12.48-.24.71-.37.91-.4,1.79-.89,2.73-1.15.53-.15,1.16.1,1.75.16-.08.54-.02,1.16-.28,1.6-.46.81-1.11,1.51-1.68,2.25Z"/>
  <path class="cls-3" d="M133.63,252.37c-.12-.11-.24-.21-.35-.32-.75-.93-1.5-1.86-2.25-2.79-.56-.64-1.12-1.28-1.68-1.92-.16-.2-.32-.39-.48-.59-.56-.64-1.12-1.28-1.68-1.92-.16-.2-.31-.4-.47-.6-.69-.75-1.39-1.49-2.08-2.24-.74-.93-1.49-1.86-2.23-2.79-1.17-1.35-2.33-2.7-3.5-4.06-.27-.33-.53-.66-.8-.98-.28-.34-.57-.68-.85-1.02.12-.27.24-.54.37-.81,1.14-.7,2.4-1.16,3.39-1.84-1.16.31-2.09,1.8-3.69,1.22-.23-.26-.45-.51-.68-.77.13-.57.26-1.14.39-1.7,1.2-1.43,2.4-2.86,3.61-4.29.11-.12.23-.25.34-.37.12-.12.24-.24.35-.36.24-.24.48-.49.71-.73.24-.24.48-.48.72-.72.6-.48,1.19-.96,1.79-1.44.39-.33.78-.66,1.17-.99.87-.12,1.74-.25,2.61-.38.27.02.5.14.71.28.1.08.19.17.27.27.07.1.13.21.19.31.06.1.12.21.18.31.07.1.13.2.17.31,0,0,.03.18.03.18.64,1.04.06,1.66-.69,2.34-.91.83-1.7,1.79-2.55,2.7-.05.06-.1.13-.15.19-.56.34-1.11.69-1.75.87-.54.17-1.34.05-1.4.82-.08.92.87.78,1.39,1.09.92.9,1.74,1.88,2.66,2.78.11.12.2.25.29.38.32.56.76,1.01,1.28,1.37.13.09.24.2.35.32.14.19.26.39.38.59.09.13.17.26.25.39.48.72,1.09,1.32,1.67,1.95.11.11.21.22.3.34.28.44.61.83,1.05,1.11.12.09.23.2.32.31.14.18.25.38.37.57.09.12.17.25.25.38.55.86,1.36,1.47,2.02,2.22.1.11.19.23.28.36.22.39.53.71.89.97.12.1.21.22.3.35.5,1.1,1.42,1.86,2.19,2.74.1.13.17.28.23.43.11.42.04.82-.18,1.19-.08.14-.18.27-.29.39-.1.12-.21.24-.33.36-.06.06-.11.12-.17.18-.75.76-1.57,1.47-2.04,2.46-.06.13-.14.26-.22.39-.11.18-.21.37-.32.55-.07.12-.17.22-.28.3-.13.04-.25.11-.35.2-.36.05-.72.11-1.07.17-.31-.35-.61-.71-.92-1.06Z"/>
  <path class="cls-22" d="M129.17,220.59c-.28-.2-.57-.4-.85-.59.17-.16.33-.32.5-.48.51.02,1.02.04,1.52.06-.14.63-.68.79-1.17,1.01Z"/>
  <path class="cls-3" d="M151.62,244.49c-.12.11-.23.21-.35.32-.24.24-.49.49-.73.73-.23.24-.47.49-.7.73-.21.15-.41.3-.62.45-.97.83-1.93,1.66-2.9,2.49-.45.37-.9.73-1.35,1.1-.84-.09-1.68-.19-2.52-.28,0,0-.17-.03-.17-.03-.11-.04-.21-.1-.3-.18,0,0-.14-.1-.15-.1-.16-.09-.32-.17-.47-.27-.1-.08-.19-.18-.26-.29-.11-.18-.2-.36-.29-.55-.06-.14-.09-.28-.12-.42-.15-.96.53-1.55.98-2.25.08-.13.18-.26.28-.38.11-.12.23-.23.35-.33.13-.09.28-.17.42-.24.89-.32,1.41-1.04,1.96-1.74.11-.13.24-.23.39-.31.55-.19,1.1-.39,1.68-.13,1.28.15,1.5-.67,1.53-1.66,2.01-1.21,4.01-2.43,6.02-3.64.5.33.99.67,1.49,1-.41.82-.81,1.65-1.22,2.47-.48.59-.97,1.19-1.45,1.78-.12.12-.23.24-.35.37-.16.2-.31.41-.47.61-.24.25-.47.5-.7.75Z"/>
  <path class="cls-3" d="M142.11,252.23c-1.79.82-3.59,1.64-5.38,2.46-.24-.47-.48-.95-.73-1.42-.1-.07-.14-.15-.11-.23.03-.08.06-.12.09-.12h-.01c.22-.18.16-.52.37-.72h-.01c.73-1.16,1.88-2,2.53-3.23h-.01c.13-.11.25-.23.37-.36h-.01c.6-.46,1.21-.72,1.81.01v-.02c.2.21.14.54.36.74l-.02-.02c.2.22.54.16.75.37l-.02-.02c.12.13.24.27.38.38,0,0-.02-.02-.02-.02-.11.73-.22,1.47-.34,2.2Z"/>
  <path class="cls-3" d="M133.32,225.79c.11.11.22.22.33.33,2.04,2.39,4.09,4.79,6.14,7.18.72.84,1.44,1.67,2.16,2.51.14.21.29.42.44.63.49.59.98,1.18,1.47,1.77.62.71,1.23,1.42,1.85,2.12.04.7.08,1.4.12,2.11-.11.45-.58.5-.86.77h.01c-.81.76-1.51,1.63-2.53,2.16h.01c-.13.11-.25.23-.37.36h.01c-.9.36-.98,2.19-2.53,1.43v.02c-.65-1.22-1.71-2.13-2.51-3.25h.01c-.36-.35-.72-.72-1.09-1.08v.02c-.57-1.19-1.64-1.96-2.52-2.89v.02c-.19-.2-.14-.54-.36-.74v.02c-.47-.49-.95-.97-1.44-1.45v.02c-.62-.92-1.31-1.8-2.16-2.53v.02c-.19-.2-.14-.54-.36-.74v.02c-.59-.61-1.19-1.21-1.8-1.81v.02c-.67-1.24-1.75-2.15-2.65-3.22-.23-.54,0-1,.24-1.46.42-.66,1.06-1.05,1.71-1.44,0,0-.01.01-.01.01,1.11-.85,2.19-1.76,3.35-2.52.44-.29,1.1-.24,1.66-.34.55.65,1.11,1.3,1.66,1.96Z"/>
  <path class="cls-3" d="M129.17,220.59c.39-.34.78-.67,1.17-1.01.92-.08,1.85-.17,2.77-.25-.51.87-1.02,1.73-1.54,2.6-.57-.09-1.13-.19-1.7-.28,0,0,.01.01.01.01-.11-.14-.25-.25-.38-.37v.02c-.2-.2-.13-.55-.36-.74v.02Z"/>
  <path class="cls-22" d="M135.99,252.91c0,.12.01.24.02.36-.13,0-.26,0-.39,0,.12-.12.25-.24.37-.36Z"/>
  <path class="cls-22" d="M144.96,243.22c.29-.26.57-.51.86-.77.32.13.63.25.95.38-.6.13-1.2.26-1.81.4Z"/>
  <path class="cls-22" d="M117.31,231.74c1.62-.69,3.24-1.38,4.86-2.06-1.23,1.38-2.72,2.32-4.56,2.68-.1-.2-.2-.41-.3-.61Z"/>
  <path class="cls-26" d="M376.65,256.86c.39-2.04.53-4.18,1.23-6.11,1.14-3.12,3.74-3.45,5.42-.63,1.35,2.26,2.05,4.9,3.03,7.37-3.2.39-6.41.78-9.61,1.18-.04-.12-.07-.24-.11-.36-.08-.49-.11-.98.03-1.46Z"/>
  <path class="cls-16" d="M376.65,256.86c0,.49-.02.97-.03,1.46,0-.49.02-.97.03-1.46Z"/>
  <path class="cls-16" d="M125.11,228.11c-.06.46-.13.92-.19,1.38.1.16.07.3-.07.42-.74-.3-2.04-.51-2.1-.91-.25-1.52.82-1.72,2.06-1.4.23.09.32.27.31.51Z"/>
  <path class="cls-22" d="M139.57,247.16c.84-.48,1.69-.96,2.53-1.44-.36.96-.72,1.92-1.08,2.89-.6,0-1.21,0-1.81,0,.12-.48.24-.96.36-1.45Z"/>
  <path class="cls-22" d="M137.06,243.93c.84,1.08,1.68,2.17,2.53,3.25-.84-1.08-1.68-2.17-2.53-3.25Z"/>
  <path class="cls-22" d="M124.85,229.91c.02-.14.05-.28.07-.42.82,1.11,1.63,2.21,2.45,3.32-.84-.97-1.68-1.93-2.52-2.9Z"/>
  <path class="cls-22" d="M138.87,248.95c-.84,1.08-1.68,2.16-2.53,3.25.84-1.08,1.68-2.16,2.53-3.25Z"/>
  <path class="cls-22" d="M133.46,239.98c.84.96,1.69,1.93,2.53,2.89-.84-.96-1.69-1.93-2.53-2.89Z"/>
  <path class="cls-22" d="M129.51,235.3c.72.84,1.45,1.69,2.17,2.53-.72-.84-1.45-1.69-2.17-2.53Z"/>
  <path class="cls-22" d="M127.35,232.79c.6.6,1.21,1.21,1.81,1.81-.6-.6-1.21-1.21-1.81-1.81Z"/>
  <path class="cls-22" d="M125.11,228.11c-.1-.17-.2-.34-.31-.51.62-.3,1.23-.6,1.85-.91-.51.47-1.03.95-1.54,1.42Z"/>
  <path class="cls-22" d="M131.67,237.82c.48.48.97.97,1.45,1.45-.48-.48-.97-.97-1.45-1.45Z"/>
  <path class="cls-22" d="M135.98,242.85c.36.36.73.73,1.09,1.09-.36-.36-.73-.73-1.09-1.09Z"/>
  <path class="cls-22" d="M129.15,220.57c.12.25.25.49.37.74-.12-.25-.25-.49-.37-.74Z"/>
  <path class="cls-22" d="M129.15,234.58c.12.25.25.49.37.74-.12-.25-.25-.49-.37-.74Z"/>
  <path class="cls-22" d="M136.35,252.19c-.12.24-.25.49-.37.73.12-.24.25-.49.37-.73Z"/>
  <path class="cls-22" d="M133.11,239.25c.12.25.25.49.37.74-.12-.25-.25-.49-.37-.74Z"/>
  <path class="cls-22" d="M139.23,248.6c-.12.12-.25.25-.37.37.12-.12.25-.25.37-.37Z"/>
  <path class="cls-22" d="M129.51,221.29c.13.12.25.25.38.37-.13-.12-.25-.25-.38-.37Z"/>
  <path class="cls-22" d="M142.45,245.37c.84-.72,1.68-1.44,2.53-2.17-.84.72-1.68,1.44-2.53,2.17Z"/>
  <path class="cls-5" d="M141.38,249.34c-.12-.25-.25-.5-.37-.74.12.25.25.5.37.74Z"/>
  <path class="cls-5" d="M142.11,249.69c-.25-.12-.5-.25-.75-.37.25.12.5.25.75.37Z"/>
  <path class="cls-22" d="M142.09,245.73c.12-.12.25-.25.37-.37-.12.12-.25.25-.37.37Z"/>
  <path class="cls-5" d="M142.47,250.05c-.13-.13-.25-.25-.38-.38.13.13.25.25.38.38Z"/>
</svg>