<?xml version="1.0" encoding="UTF-8"?>
<svg id="Layer_1" xmlns="http://www.w3.org/2000/svg" viewBox="0 0 336.47 500" fill="currentColor">
  <polygon points="267.15 0 267.15 147.77 262.33 151.14 239.21 167.34 231.91 172.45 231.91 20.36 239.21 16.15 267.15 0"/>
  <polygon points="106.52 327.54 106.52 479.49 71.01 500 71.01 352.42 77.09 348.16 97.86 333.61 106.52 327.54"/>
  <path d="M336.47,152.94v193.73l-5.19,3-6.96,4.02-18.2,10.51-14.74,8.5-8.24,4.77-15.72,9.07-35.51,20.51-7.84,4.53-18.57,10.72-35.51,20.51-35.28-20.38-19.15-11.05v-41.02l21.97,12.69,32.68,18.88,53.86-31.1,7.84-4.53,21.86-12.63,8.24-4.76,5.41-3.12,27.52-15.9,6.97-4.03,1.64-.94v-149.81c-.69.48-1.39.96-2.08,1.44-11.62,8.02-22.92,15.83-34.05,23.51-11.98,8.28-23.76,16.42-35.51,24.53-2.62,1.8-5.23,3.61-7.84,5.41-7.04,4.86-14.07,9.71-21.15,14.61-8.47-6.68-15.81-12.48-26.35-20.79,16.06-11.28,31.85-22.39,47.5-33.38,2.62-1.84,5.23-3.68,7.84-5.51,11.9-8.36,23.72-16.68,35.51-24.95,1.54-1.09,3.07-2.16,4.61-3.24,9.82-6.9,19.62-13.8,29.44-20.7.86-.61,1.73-1.21,2.59-1.82l32.41,18.72Z"/>
  <polygon points="267.42 214.84 267.42 308.04 236.6 325.84 234.81 326.88 231.91 324.53 224.07 318.18 175.76 279.04 167.82 272.61 139.11 249.36 131.23 242.98 115.56 230.27 106.52 222.95 106.52 260.28 99.9 264.93 71.01 285.16 71.01 190.39 101.2 172.95 106.52 177.25 115.56 184.57 161.49 221.78 169.36 228.16 198.07 251.42 206.01 257.85 224.07 272.48 231.91 278.83 231.91 239.71 238.44 235.13 267.42 214.84"/>
  <path d="M224.07,88.03v34.55c-6.34-3.42-12.45-6.71-18.44-9.94-10.9-5.88-21.43-11.55-32.32-17.43-1.1-.59-2.2-1.18-3.31-1.78L35.51,171.11v151.11c12.12-8.45,23.88-16.66,35.5-24.75,11.93-8.32,23.69-16.53,35.51-24.77,3.01-2.09,6.02-4.19,9.04-6.3,5.43-3.78,10.88-7.58,16.37-11.41l26.56,21.52c-14.51,10.25-28.79,20.32-42.93,30.3-3.02,2.13-6.03,4.26-9.04,6.38-11.89,8.38-23.71,16.73-35.51,25.06-1.66,1.18-3.32,2.35-4.98,3.52-10.16,7.16-20.32,14.34-30.52,21.53-.48.34-.96.68-1.45,1.02L1.69,345.62l-1.69-.97v-190.35l4.46-2.58,8.25-4.76,22.8-13.17,10.13-5.85,6.97-4.03,18.4-10.62,35.51-20.51,9.04-5.22,18.35-10.59,35.5-20.51,35.5,20.51,19.16,11.06Z"/>
</svg>