<?xml version="1.0" encoding="UTF-8"?><svg id="Layer_1" xmlns="http://www.w3.org/2000/svg" viewBox="0 0 489.5 85.64" fill="currentColor"><polygon points="55.58 0 55.58 25.31 54.58 25.89 49.77 28.66 48.25 29.54 48.25 3.49 49.77 2.77 55.58 0"/><polygon points="22.16 56.1 22.16 82.13 14.77 85.64 14.77 60.36 16.04 59.63 20.36 57.14 22.16 56.1"/><path d="M70,26.2v33.18l-1.08.51-1.45.69-3.79,1.8-3.07,1.46-1.71.82-3.27,1.55-7.39,3.51-1.63.78-3.86,1.84-7.39,3.51-7.34-3.49-3.98-1.89v-7.03l4.57,2.17,6.8,3.23,11.21-5.33,1.63-.78,4.55-2.16,1.71-.82,1.13-.53,5.73-2.72,1.45-.69.34-.16v-25.66c-.14.08-.29.16-.43.25-2.42,1.37-4.77,2.71-7.08,4.03-2.49,1.42-4.94,2.81-7.39,4.2-.55.31-1.09.62-1.63.93-1.46.83-2.93,1.66-4.4,2.5-1.76-1.14-3.29-2.14-5.48-3.56,3.34-1.93,6.63-3.83,9.88-5.72.55-.32,1.09-.63,1.63-.94,2.48-1.43,4.93-2.86,7.39-4.27.32-.19.64-.37.96-.56,2.04-1.18,4.08-2.36,6.12-3.55.18-.1.36-.21.54-.31l6.74,3.21Z"/><polygon points="55.63 36.8 55.63 52.76 49.22 55.81 48.85 55.99 48.25 55.58 46.62 54.5 36.57 47.79 34.91 46.69 28.94 42.71 27.3 41.62 24.04 39.44 22.16 38.19 22.16 44.58 20.78 45.38 14.77 48.84 14.77 32.61 21.05 29.62 22.16 30.36 24.04 31.61 33.6 37.99 35.23 39.08 41.21 43.06 42.86 44.16 46.62 46.67 48.25 47.76 48.25 41.06 49.61 40.27 55.63 36.8"/><path d="M46.62,15.08v5.92c-1.32-.59-2.59-1.15-3.84-1.7-2.27-1.01-4.46-1.98-6.72-2.98-.23-.1-.46-.2-.69-.31L7.39,29.31v25.88c2.52-1.45,4.97-2.85,7.39-4.24,2.48-1.43,4.93-2.83,7.39-4.24.63-.36,1.25-.72,1.88-1.08,1.13-.65,2.26-1.3,3.41-1.96l5.53,3.69c-3.02,1.76-5.99,3.48-8.93,5.19-.63.36-1.25.73-1.88,1.09-2.47,1.44-4.93,2.86-7.39,4.29-.35.2-.69.4-1.04.6-2.11,1.23-4.23,2.46-6.35,3.69-.1.06-.2.12-.3.17l-6.73-3.2-.35-.17V26.43l.93-.44,1.72-.82,4.74-2.25,2.11-1,1.45-.69,3.83-1.82,7.39-3.51,1.88-.89,3.82-1.81,7.39-3.51,7.39,3.51,3.99,1.9Z"/><path d="M113.46,69.67c-3.31,0-6.37-.36-9.18-1.07-2.81-.72-5.36-1.8-7.66-3.26-2.29-1.46-4.34-3.26-6.13-5.41l6.44-6.09c2.84,3.34,5.57,5.66,8.18,6.95,2.61,1.29,5.71,1.93,9.31,1.93,2.2,0,4.2-.29,6-.86,1.8-.57,3.22-1.36,4.26-2.36,1.04-1,1.57-2.15,1.57-3.44,0-.86-.17-1.67-.52-2.44-.35-.76-.89-1.46-1.61-2.08-.73-.62-1.65-1.19-2.78-1.72-1.13-.52-2.45-.99-3.96-1.4-1.51-.41-3.25-.75-5.22-1.04-3.13-.52-5.86-1.22-8.18-2.08-2.32-.86-4.26-1.93-5.83-3.22-1.57-1.29-2.73-2.76-3.48-4.4-.75-1.65-1.13-3.5-1.13-5.55s.54-3.87,1.61-5.59c1.07-1.72,2.55-3.21,4.44-4.48,1.88-1.26,4.1-2.24,6.65-2.94,2.55-.69,5.31-1.04,8.26-1.04,3.13,0,6,.33,8.61,1,2.61.67,4.93,1.66,6.96,2.97,2.03,1.31,3.71,2.93,5.05,4.83l-6.61,5.37c-1.16-1.58-2.47-2.9-3.91-3.97-1.45-1.07-3.04-1.89-4.78-2.43-1.74-.55-3.6-.82-5.57-.82-2.26,0-4.23.29-5.91.86-1.68.57-3,1.37-3.96,2.4-.96,1.03-1.44,2.23-1.44,3.62,0,1,.23,1.92.7,2.76.46.84,1.17,1.58,2.13,2.22s2.25,1.22,3.87,1.72c1.62.5,3.57.94,5.83,1.32,3.19.57,6.03,1.3,8.52,2.18,2.49.88,4.61,1.92,6.35,3.12,1.74,1.19,3.06,2.53,3.96,4.01.9,1.48,1.35,3.08,1.35,4.8,0,3.2-.9,5.97-2.7,8.31-1.8,2.34-4.35,4.14-7.66,5.41-3.3,1.26-7.25,1.9-11.83,1.9Z"/><path d="M142.87,38.52v-7.16h29.05v7.16h-29.05ZM152.35,68.96V21.76h8.96v47.19h-8.96Z"/><path d="M200.97,69.67c-4.7,0-8.86-.82-12.48-2.47-3.62-1.65-6.47-3.9-8.52-6.77-2.06-2.86-3.09-6.16-3.09-9.88,0-2.96.58-5.66,1.74-8.09,1.16-2.44,2.77-4.55,4.83-6.34,2.06-1.79,4.52-3.17,7.39-4.15,2.87-.98,5.99-1.47,9.35-1.47,2.96,0,5.71.47,8.26,1.4,2.55.93,4.77,2.21,6.65,3.83,1.88,1.62,3.33,3.54,4.35,5.76,1.01,2.22,1.49,4.64,1.44,7.27l-.09,3.15h-37.32l-2-5.87h31.58l-1.31,1.22v-1.72c-.17-1.58-.81-2.98-1.91-4.23-1.1-1.24-2.49-2.22-4.17-2.94-1.68-.72-3.51-1.07-5.48-1.07-3.13,0-5.77.49-7.92,1.47-2.15.98-3.77,2.41-4.87,4.3-1.1,1.89-1.65,4.21-1.65,6.98s.67,4.91,2,6.84c1.33,1.93,3.22,3.43,5.65,4.48,2.44,1.05,5.25,1.58,8.44,1.58,2.26,0,4.36-.31,6.31-.93,1.94-.62,4.04-1.74,6.31-3.37l4.52,5.23c-1.39,1.15-3.09,2.15-5.09,3.01-2,.86-4.12,1.54-6.35,2.04-2.23.5-4.42.75-6.57.75Z"/><path d="M230.81,68.96V15.96h8.96v52.99h-8.96Z"/><path d="M252.64,68.96V15.96h8.96v52.99h-8.96Z"/><path d="M291,69.67c-3.77,0-7.21-.86-10.31-2.58-3.1-1.72-5.58-4.06-7.44-7.02-1.86-2.96-2.78-6.3-2.78-10.03s.94-7.12,2.83-10.06c1.88-2.94,4.44-5.24,7.65-6.91,3.22-1.67,6.83-2.51,10.83-2.51,2.38,0,4.55.29,6.52.86,1.97.57,3.7,1.37,5.18,2.4,1.48,1.03,2.7,2.21,3.65,3.55.96,1.34,1.55,2.77,1.78,4.3l-2-.57v-9.74h9.05v37.6h-9.05v-8.95l2.09-.5c-.35,1.29-1.06,2.54-2.13,3.76-1.07,1.22-2.44,2.3-4.09,3.26-1.65.96-3.48,1.72-5.48,2.29-2,.57-4.1.86-6.31.86ZM293.35,62.87c2.72,0,5.13-.55,7.22-1.65,2.09-1.1,3.73-2.61,4.91-4.55,1.19-1.93,1.78-4.14,1.78-6.62s-.59-4.61-1.78-6.52c-1.19-1.91-2.83-3.41-4.91-4.51-2.09-1.1-4.5-1.65-7.22-1.65s-5.03.55-7.09,1.65c-2.06,1.1-3.68,2.6-4.87,4.51-1.19,1.91-1.78,4.08-1.78,6.52s.59,4.69,1.78,6.62c1.19,1.93,2.81,3.45,4.87,4.55,2.06,1.1,4.42,1.65,7.09,1.65Z"/><path d="M330.75,68.96V18.83h8.44l37.23,41.03-1.39.65c-.23-1.19-.43-2.49-.61-3.9-.17-1.41-.33-2.91-.48-4.51-.15-1.6-.26-3.29-.35-5.08-.09-1.79-.16-3.66-.22-5.62-.06-1.96-.09-3.99-.09-6.09v-16.47h9.39v50.13h-8.61l-36.62-39.53.96-1c.29,2.91.54,5.38.74,7.41.2,2.03.38,3.75.52,5.16.14,1.41.25,2.55.3,3.44.06.88.1,1.61.13,2.18.03.57.04,1.07.04,1.5v20.84h-9.39Z"/><path d="M418.78,69.67c-4.7,0-8.86-.82-12.48-2.47-3.62-1.65-6.47-3.9-8.52-6.77-2.06-2.86-3.09-6.16-3.09-9.88,0-2.96.58-5.66,1.74-8.09,1.16-2.44,2.77-4.55,4.83-6.34,2.06-1.79,4.52-3.17,7.39-4.15,2.87-.98,5.99-1.47,9.35-1.47,2.96,0,5.71.47,8.26,1.4,2.55.93,4.77,2.21,6.65,3.83,1.88,1.62,3.33,3.54,4.35,5.76,1.01,2.22,1.49,4.64,1.44,7.27l-.09,3.15h-37.32l-2-5.87h31.58l-1.31,1.22v-1.72c-.17-1.58-.81-2.98-1.91-4.23-1.1-1.24-2.49-2.22-4.17-2.94-1.68-.72-3.51-1.07-5.48-1.07-3.13,0-5.77.49-7.92,1.47-2.15.98-3.77,2.41-4.87,4.3-1.1,1.89-1.65,4.21-1.65,6.98s.67,4.91,2,6.84c1.33,1.93,3.22,3.43,5.65,4.48,2.44,1.05,5.25,1.58,8.44,1.58,2.26,0,4.36-.31,6.31-.93,1.94-.62,4.04-1.74,6.31-3.37l4.52,5.23c-1.39,1.15-3.09,2.15-5.09,3.01-2,.86-4.12,1.54-6.35,2.04-2.23.5-4.42.75-6.57.75Z"/><path d="M478.54,68.96l-14.79-15.83-1.31-1.36-19.22-20.41h11.31l14.53,15.61,1.48,1.58,18.96,20.41h-10.96ZM443.31,68.96l18.01-19.34,5.31,5.23-12.7,14.11h-10.61ZM471.06,50.77l-4.96-5.16,11.22-14.25h10.61l-16.87,19.41Z"/></svg>