<?xml version="1.0" encoding="UTF-8"?>
<svg xmlns="http://www.w3.org/2000/svg" viewBox="0 0 500 500" fill="currentColor">
  <defs>
    <style>
      .cls-1 {
        fill: none;
      }
    </style>
  </defs>
  <path d="M250,50c-110.46,0-200,89.54-200,200s89.54,200,200,200,200-89.54,200-200S360.46,50,250,50ZM294.47,87.69l5.16-2.98,19.72-11.4v104.33l-3.4,2.38-16.32,11.43-5.16,3.61v-107.37ZM205.95,411.83l-25.07,14.48v-104.19l4.29-3.01,14.66-10.27,6.12-4.28v107.27ZM180.88,312.11c-1.17.84-2.34,1.66-3.52,2.49-7.17,5.06-14.34,10.12-21.54,15.2-.34.24-.68.48-1.03.72l-22.85-13.2-1.19-.69v-134.38l3.15-1.82,5.82-3.36,16.1-9.3,7.15-4.13,4.92-2.85,12.99-7.5,25.07-14.48,6.38-3.68,12.96-7.48,25.06-14.48,25.06,14.48,13.53,7.81v24.39c-4.48-2.41-8.79-4.74-13.02-7.02-7.69-4.15-15.13-8.15-22.82-12.3-.77-.42-1.55-.83-2.33-1.26l-94.95,54.85v106.68c8.55-5.97,16.86-11.76,25.06-17.47,8.42-5.88,16.72-11.67,25.07-17.49,2.12-1.48,4.25-2.96,6.38-4.45,3.84-2.67,7.68-5.35,11.56-8.06l18.75,15.19c-10.24,7.24-20.33,14.35-30.31,21.4-2.13,1.5-4.26,3-6.38,4.5-8.39,5.92-16.74,11.81-25.07,17.69ZM270.58,250.82l5.61,4.54,12.75,10.32,5.53,4.49v-27.63l4.61-3.22,20.46-14.33v65.8l-21.76,12.57-1.26.73-2.05-1.66-5.53-4.48-34.11-27.63-5.6-4.55-20.27-16.41-5.57-4.51-11.06-8.97-6.38-5.17v26.36l-4.68,3.28-20.39,14.29v-66.92l21.31-12.31,3.76,3.04,6.38,5.17,32.43,26.27,5.55,4.5,20.27,16.43ZM368.29,318.06l-3.66,2.12-4.92,2.84-12.85,7.42-10.4,6-5.82,3.37-11.1,6.41-25.07,14.48-5.53,3.2-13.11,7.57-25.07,14.48-24.91-14.39-13.52-7.8v-28.96l15.51,8.95,23.07,13.33,38.03-21.96,5.53-3.2,15.44-8.91,5.81-3.36,3.82-2.2,19.43-11.23,4.92-2.84,1.16-.67v-105.76c-.49.34-.98.67-1.47,1.01-8.2,5.67-16.18,11.18-24.04,16.6-8.46,5.85-16.77,11.59-25.07,17.32-1.85,1.27-3.69,2.55-5.53,3.82-4.97,3.43-9.94,6.86-14.93,10.31-5.98-4.72-11.17-8.8-18.61-14.67,11.34-7.97,22.49-15.81,33.54-23.57,1.85-1.3,3.69-2.6,5.53-3.89,8.4-5.91,16.75-11.78,25.07-17.62,1.09-.77,2.17-1.52,3.26-2.29,6.93-4.87,13.85-9.74,20.78-14.61l1.83-1.29,22.88,13.22v136.77Z"/>
  <path d="M250,0C111.93,0,0,111.93,0,250s111.93,250,250,250,250-111.93,250-250S388.07,0,250,0ZM250,465.5c-119.02,0-215.5-96.48-215.5-215.5S130.98,34.5,250,34.5s215.5,96.48,215.5,215.5-96.48,215.5-215.5,215.5Z"/>
  <path d="M250,50c-110.46,0-200,89.54-200,200s89.54,200,200,200,200-89.54,200-200S360.46,50,250,50ZM294.47,87.69l5.16-2.98,19.72-11.4v104.33l-3.4,2.38-16.32,11.43-5.16,3.61v-107.37ZM205.95,411.83l-25.07,14.48v-104.19l4.29-3.01,14.66-10.27,6.12-4.28v107.27ZM180.88,312.11c-1.17.84-2.34,1.66-3.52,2.49-7.17,5.06-14.34,10.12-21.54,15.2-.34.24-.68.48-1.03.72l-22.85-13.2-1.19-.69v-134.38l3.15-1.82,5.82-3.36,16.1-9.3,7.15-4.13,4.92-2.85,12.99-7.5,25.07-14.48,6.38-3.68,12.96-7.48,25.06-14.48,25.06,14.48,13.53,7.81v24.39c-4.48-2.41-8.79-4.74-13.02-7.02-7.69-4.15-15.13-8.15-22.82-12.3-.77-.42-1.55-.83-2.33-1.26l-94.95,54.85v106.68c8.55-5.97,16.86-11.76,25.06-17.47,8.42-5.88,16.72-11.67,25.07-17.49,2.12-1.48,4.25-2.96,6.38-4.45,3.84-2.67,7.68-5.35,11.56-8.06l18.75,15.19c-10.24,7.24-20.33,14.35-30.31,21.4-2.13,1.5-4.26,3-6.38,4.5-8.39,5.92-16.74,11.81-25.07,17.69ZM270.58,250.82l5.61,4.54,12.75,10.32,5.53,4.49v-27.63l4.61-3.22,20.46-14.33v65.8l-21.76,12.57-1.26.73-2.05-1.66-5.53-4.48-34.11-27.63-5.6-4.55-20.27-16.41-5.57-4.51-11.06-8.97-6.38-5.17v26.36l-4.68,3.28-20.39,14.29v-66.92l21.31-12.31,3.76,3.04,6.38,5.17,32.43,26.27,5.55,4.5,20.27,16.43ZM368.29,318.06l-3.66,2.12-4.92,2.84-12.85,7.42-10.4,6-5.82,3.37-11.1,6.41-25.07,14.48-5.53,3.2-13.11,7.57-25.07,14.48-24.91-14.39-13.52-7.8v-28.96l15.51,8.95,23.07,13.33,38.03-21.96,5.53-3.2,15.44-8.91,5.81-3.36,3.82-2.2,19.43-11.23,4.92-2.84,1.16-.67v-105.76c-.49.34-.98.67-1.47,1.01-8.2,5.67-16.18,11.18-24.04,16.6-8.46,5.85-16.77,11.59-25.07,17.32-1.85,1.27-3.69,2.55-5.53,3.82-4.97,3.43-9.94,6.86-14.93,10.31-5.98-4.72-11.17-8.8-18.61-14.67,11.34-7.97,22.49-15.81,33.54-23.57,1.85-1.3,3.69-2.6,5.53-3.89,8.4-5.91,16.75-11.78,25.07-17.62,1.09-.77,2.17-1.52,3.26-2.29,6.93-4.87,13.85-9.74,20.78-14.61l1.83-1.29,22.88,13.22v136.77Z"/>
  <path class="cls-1" d="M250,34.5c-119.02,0-215.5,96.48-215.5,215.5s96.48,215.5,215.5,215.5,215.5-96.48,215.5-215.5S369.02,34.5,250,34.5ZM250,450c-110.46,0-200-89.54-200-200S139.54,50,250,50s200,89.54,200,200-89.54,200-200,200Z"/>
  <path class="cls-1" d="M288.94,135.46v24.39c-4.48-2.41-8.79-4.74-13.02-7.02-7.69-4.15-15.13-8.15-22.82-12.3-.77-.42-1.55-.83-2.33-1.26l-94.95,54.85v106.68c8.55-5.97,16.86-11.76,25.06-17.47,8.42-5.88,16.72-11.67,25.07-17.49,2.12-1.48,4.25-2.96,6.38-4.45,3.84-2.67,7.68-5.35,11.56-8.06l18.75,15.19c-10.24,7.24-20.33,14.35-30.31,21.4-2.13,1.5-4.26,3-6.38,4.5-8.39,5.92-16.74,11.81-25.07,17.69-1.17.84-2.34,1.66-3.52,2.49-7.17,5.06-14.34,10.12-21.54,15.2-.34.24-.68.48-1.03.72l-22.85-13.2-1.19-.69v-134.38l3.15-1.82,5.82-3.36,16.1-9.3,7.15-4.13,4.92-2.85,12.99-7.5,25.07-14.48,6.38-3.68,12.96-7.48,25.06-14.48,25.06,14.48,13.53,7.81Z"/>
  <path d="M250,50c-110.46,0-200,89.54-200,200s89.54,200,200,200,200-89.54,200-200S360.46,50,250,50ZM294.47,87.69l5.16-2.98,19.72-11.4v104.33l-3.4,2.38-16.32,11.43-5.16,3.61v-107.37ZM205.95,411.83l-25.07,14.48v-104.19l4.29-3.01,14.66-10.27,6.12-4.28v107.27ZM180.88,312.11c-1.17.84-2.34,1.66-3.52,2.49-7.17,5.06-14.34,10.12-21.54,15.2-.34.24-.68.48-1.03.72l-22.85-13.2-1.19-.69v-134.38l3.15-1.82,5.82-3.36,16.1-9.3,7.15-4.13,4.92-2.85,12.99-7.5,25.07-14.48,6.38-3.68,12.96-7.48,25.06-14.48,25.06,14.48,13.53,7.81v24.39c-4.48-2.41-8.79-4.74-13.02-7.02-7.69-4.15-15.13-8.15-22.82-12.3-.77-.42-1.55-.83-2.33-1.26l-94.95,54.85v106.68c8.55-5.97,16.86-11.76,25.06-17.47,8.42-5.88,16.72-11.67,25.07-17.49,2.12-1.48,4.25-2.96,6.38-4.45,3.84-2.67,7.68-5.35,11.56-8.06l18.75,15.19c-10.24,7.24-20.33,14.35-30.31,21.4-2.13,1.5-4.26,3-6.38,4.5-8.39,5.92-16.74,11.81-25.07,17.69ZM270.58,250.82l5.61,4.54,12.75,10.32,5.53,4.49v-27.63l4.61-3.22,20.46-14.33v65.8l-21.76,12.57-1.26.73-2.05-1.66-5.53-4.48-34.11-27.63-5.6-4.55-20.27-16.41-5.57-4.51-11.06-8.97-6.38-5.17v26.36l-4.68,3.28-20.39,14.29v-66.92l21.31-12.31,3.76,3.04,6.38,5.17,32.43,26.27,5.55,4.5,20.27,16.43ZM368.29,318.06l-3.66,2.12-4.92,2.84-12.85,7.42-10.4,6-5.82,3.37-11.1,6.41-25.07,14.48-5.53,3.2-13.11,7.57-25.07,14.48-24.91-14.39-13.52-7.8v-28.96l15.51,8.95,23.07,13.33,38.03-21.96,5.53-3.2,15.44-8.91,5.81-3.36,3.82-2.2,19.43-11.23,4.92-2.84,1.16-.67v-105.76c-.49.34-.98.67-1.47,1.01-8.2,5.67-16.18,11.18-24.04,16.6-8.46,5.85-16.77,11.59-25.07,17.32-1.85,1.27-3.69,2.55-5.53,3.82-4.97,3.43-9.94,6.86-14.93,10.31-5.98-4.72-11.17-8.8-18.61-14.67,11.34-7.97,22.49-15.81,33.54-23.57,1.85-1.3,3.69-2.6,5.53-3.89,8.4-5.91,16.75-11.78,25.07-17.62,1.09-.77,2.17-1.52,3.26-2.29,6.93-4.87,13.85-9.74,20.78-14.61l1.83-1.29,22.88,13.22v136.77Z"/>
  <polygon class="cls-1" points="205.95 304.56 205.95 411.83 180.88 426.31 180.88 322.12 185.17 319.11 199.83 308.84 205.95 304.56"/>
  <polygon class="cls-1" points="319.35 73.31 319.35 177.64 315.95 180.02 299.63 191.45 294.47 195.06 294.47 87.69 299.63 84.71 319.35 73.31"/>
  <path class="cls-1" d="M368.29,181.29v136.77l-3.66,2.12-4.92,2.84-12.85,7.42-10.4,6-5.82,3.37-11.1,6.41-25.07,14.48-5.53,3.2-13.11,7.57-25.07,14.48-24.91-14.39-13.52-7.8v-28.96l15.51,8.95,23.07,13.33,38.03-21.96,5.53-3.2,15.44-8.91,5.81-3.36,3.82-2.2,19.43-11.23,4.92-2.84,1.16-.67v-105.76c-.49.34-.98.67-1.47,1.01-8.2,5.67-16.18,11.18-24.04,16.6-8.46,5.85-16.77,11.59-25.07,17.32-1.85,1.27-3.69,2.55-5.53,3.82-4.97,3.43-9.94,6.86-14.93,10.31-5.98-4.72-11.17-8.8-18.61-14.67,11.34-7.97,22.49-15.81,33.54-23.57,1.85-1.3,3.69-2.6,5.53-3.89,8.4-5.91,16.75-11.78,25.07-17.62,1.09-.77,2.17-1.52,3.26-2.29,6.93-4.87,13.85-9.74,20.78-14.61l1.83-1.29,22.88,13.22Z"/>
  <polygon class="cls-1" points="319.54 224.99 319.54 290.79 297.78 303.36 296.52 304.09 294.47 302.43 288.94 297.95 254.83 270.32 249.23 265.77 228.96 249.36 223.39 244.85 212.33 235.88 205.95 230.71 205.95 257.07 201.27 260.35 180.88 274.64 180.88 207.72 202.19 195.41 205.95 198.45 212.33 203.62 244.76 229.89 250.31 234.39 270.58 250.82 276.19 255.36 288.94 265.68 294.47 270.17 294.47 242.54 299.08 239.32 319.54 224.99"/>
</svg>